<svg width="36" height="32" viewBox="0 0 36 32" fill="none" xmlns="http://www.w3.org/2000/svg">
<path d="M17.7119 9.13232C12.9432 9.13232 9.06348 13.012 9.06348 17.7808C9.06348 22.5496 12.9432 26.4293 17.7119 26.4293C22.4807 26.4293 26.3604 22.5496 26.3604 17.7808C26.3604 13.012 22.4807 9.13232 17.7119 9.13232ZM17.7119 23.6618C14.4692 23.6618 11.831 21.0236 11.831 17.7808C11.831 14.538 14.4692 11.8998 17.7119 11.8998C20.9547 11.8998 23.5929 14.538 23.5929 17.7808C23.5929 21.0236 20.9547 23.6618 17.7119 23.6618Z" fill="#000"/>
<path d="M31.2729 4.98152H26.1824C26.0212 4.98152 25.876 4.89358 25.8013 4.75133L24.393 1.79196C24.3891 1.78387 24.3852 1.77584 24.3811 1.76782C23.836 0.677417 22.7399 0 21.5208 0H14.0019C12.7828 0 11.6867 0.677417 11.1416 1.76789C11.1375 1.77591 11.1336 1.78394 11.1298 1.79203L9.72137 4.75154C9.64664 4.89358 9.50149 4.98152 9.34035 4.98152H4.15127C1.86226 4.98152 0 6.84378 0 9.13278V27.8135C0 30.1025 1.86226 31.9647 4.15127 31.9647H31.2729C33.5619 31.9647 35.4241 30.1025 35.4241 27.8135V9.13278C35.4241 6.84378 33.5619 4.98152 31.2729 4.98152ZM32.6566 27.8134C32.6566 28.5764 32.0359 29.1972 31.2729 29.1972H4.15127C3.38826 29.1972 2.76751 28.5764 2.76751 27.8134V9.13278C2.76751 8.36978 3.38826 7.74903 4.15127 7.74903H9.34035C10.5594 7.74903 11.6555 7.07168 12.2007 5.98128C12.2048 5.97326 12.2087 5.96516 12.2126 5.95707L13.621 2.99756C13.6956 2.85545 13.8408 2.76751 14.0019 2.76751H21.5208C21.6819 2.76751 21.8271 2.85545 21.9017 2.99749L23.3101 5.957C23.3141 5.96509 23.3179 5.97319 23.322 5.98121C23.8672 7.07161 24.9633 7.74896 26.1824 7.74896H31.2729C32.0359 7.74896 32.6566 8.36971 32.6566 9.13271V27.8134Z" fill="#000"/>
<path d="M29.8891 10.5164H27.1216V13.2839H29.8891V10.5164Z" fill="#000"/>
</svg>
