<svg width="15" height="15" viewBox="0 0 15 15" fill="none" xmlns="http://www.w3.org/2000/svg">
<path d="M13.9112 5.58437L13.1797 5.46032C13.1146 5.27905 13.041 5.1012 12.9596 4.92828L13.3904 4.32564C13.7652 3.7991 13.705 3.08796 13.2487 2.63615L12.3697 1.75701C12.1212 1.50856 11.7919 1.37169 11.4424 1.37169C11.1671 1.37169 10.9039 1.45649 10.6831 1.61545L10.0781 2.04632C9.89101 1.95786 9.70116 1.87969 9.51004 1.81217L9.38908 1.09543C9.28265 0.460625 8.73814 0 8.09429 0H6.85238C6.20865 0 5.66414 0.460625 5.55794 1.09417L5.43079 1.83895C5.25124 1.90453 5.0742 1.97903 4.90082 2.06223L4.30687 1.63445C4.08417 1.47411 3.81992 1.38943 3.54263 1.38943C3.1897 1.38943 2.86022 1.52653 2.61452 1.77555L1.73344 2.65377C1.27842 3.10879 1.2188 3.81935 1.59176 4.34326L2.0295 4.95827C1.94881 5.13187 1.87626 5.31052 1.81217 5.49282L1.09531 5.61378C0.460625 5.72033 0 6.26484 0 6.90857V8.15048C0 8.79421 0.460625 9.33872 1.09417 9.44504L1.83895 9.57207C1.90453 9.75174 1.97914 9.92889 2.06223 10.1022L1.63605 10.695C1.26125 11.2215 1.32145 11.9328 1.77773 12.3845L2.65675 13.2636C2.9052 13.512 3.23456 13.6489 3.58406 13.6489C3.85929 13.6489 4.12251 13.5641 4.34326 13.4053L4.95827 12.9675C5.11986 13.0426 5.2874 13.1114 5.4594 13.1733L5.58128 13.9047C5.68783 14.5394 6.23234 15 6.87607 15H8.12084C8.76457 15 9.3092 14.5394 9.41551 13.9055L9.53957 13.1739C9.72084 13.1087 9.89868 13.0352 10.0716 12.9538L10.6723 13.3832C10.895 13.5435 11.1592 13.6283 11.4365 13.6283C11.7859 13.6283 12.1153 13.4914 12.3637 13.243L13.2428 12.3639C13.6979 11.9088 13.7574 11.1983 13.3844 10.6744L12.9532 10.0689C13.0368 9.89193 13.1106 9.7142 13.1741 9.53751L13.9046 9.41574C14.5393 9.3092 14.9999 8.76469 14.9999 8.12096V6.88156C15.0071 6.23714 14.5498 5.69195 13.9112 5.58437ZM14.121 8.12096C14.121 8.3337 13.9688 8.51372 13.7596 8.54885L12.7907 8.71033C12.612 8.74008 12.4678 8.8662 12.4141 9.03957C12.328 9.31847 12.2098 9.60354 12.063 9.88644C11.9799 10.046 11.9932 10.2361 12.0975 10.3823L12.6685 11.1841C12.7916 11.3571 12.7718 11.5919 12.6213 11.7424L11.7423 12.6215C11.6587 12.7051 11.5529 12.7494 11.4365 12.7494C11.3448 12.7494 11.2581 12.7219 11.1847 12.6691L10.3863 12.0985C10.2395 11.9931 10.0486 11.9798 9.88827 12.0637C9.61979 12.2042 9.33449 12.3224 9.04026 12.4148C8.8686 12.4686 8.74329 12.6123 8.71342 12.7892L8.54885 13.7591C8.51372 13.9689 8.3337 14.1211 8.12084 14.1211H6.87607C6.66321 14.1211 6.48331 13.9689 6.44817 13.7597L6.2867 12.7908C6.25717 12.6132 6.1322 12.4693 5.96054 12.415C5.67055 12.3235 5.3944 12.2099 5.13954 12.0775C5.07008 12.0415 4.99489 12.0237 4.92004 12.0237C4.82323 12.0237 4.72687 12.0535 4.64436 12.1122L3.83171 12.6906C3.75847 12.7433 3.67516 12.77 3.58406 12.77C3.46767 12.77 3.36193 12.7258 3.27827 12.6421L2.39765 11.7616C2.24739 11.6128 2.22828 11.3786 2.35085 11.2064L2.91836 10.417C3.02513 10.2688 3.03818 10.0765 2.95212 9.91482C2.80781 9.64417 2.68822 9.36035 2.59655 9.07116C2.5423 8.90064 2.39914 8.77602 2.2229 8.74592L1.24077 8.57849C1.03111 8.54324 0.878906 8.36323 0.878906 8.15048V6.90857C0.878906 6.69582 1.03111 6.51581 1.24111 6.48056L2.19807 6.31908C2.37694 6.28899 2.52102 6.16253 2.57423 5.98858C2.66453 5.69309 2.78069 5.40733 2.9195 5.13954C3.00213 4.98035 2.98885 4.79073 2.88483 4.64436L2.30782 3.83366C2.18456 3.66062 2.20436 3.42579 2.35439 3.27576L3.23639 2.39674L3.23959 2.39342C3.3189 2.31274 3.42648 2.26833 3.54263 2.26833C3.63441 2.26833 3.72116 2.2958 3.79326 2.34776L4.58611 2.91847C4.73454 3.02536 4.92702 3.03818 5.08816 2.95212C5.35881 2.80781 5.64262 2.68822 5.93147 2.59666C6.10199 2.54253 6.22662 2.3996 6.25694 2.2229L6.42448 1.24077C6.45962 1.03111 6.63963 0.878906 6.85249 0.878906H8.09441C8.30715 0.878906 8.48717 1.03111 8.52242 1.24111L8.68389 2.19841C8.7141 2.3774 8.84079 2.52136 9.01485 2.57446C9.3116 2.66464 9.60754 2.78641 9.89468 2.93655C10.0542 3.01987 10.2443 3.00682 10.3912 2.90234L11.1948 2.33002C11.268 2.27726 11.3513 2.2506 11.4425 2.2506C11.5588 2.2506 11.6645 2.29477 11.7483 2.37854L12.6288 3.25905C12.779 3.40782 12.7983 3.64197 12.6749 3.81512L12.1037 4.61426C11.9989 4.7612 11.9859 4.95186 12.0695 5.11162C12.2102 5.3801 12.3283 5.6654 12.4207 5.95974C12.4746 6.1314 12.6183 6.2566 12.7952 6.28647L13.7643 6.45092L13.7651 6.45103C13.9742 6.48617 14.124 6.66355 14.121 6.87286V8.12096Z" fill="#000"/>
<path d="M7.49942 4.58362C5.8913 4.58362 4.58301 5.89191 4.58301 7.50003C4.58301 9.10815 5.8913 10.4164 7.49942 10.4164C9.10754 10.4164 10.4158 9.10815 10.4158 7.50003C10.4158 5.89191 9.10754 4.58362 7.49942 4.58362ZM7.49942 9.53754C6.37595 9.53754 5.46191 8.6235 5.46191 7.50003C5.46191 6.37656 6.37595 5.46252 7.49942 5.46252C8.62289 5.46252 9.53693 6.37656 9.53693 7.50003C9.53693 8.6235 8.62289 9.53754 7.49942 9.53754Z" fill="#000"/>
</svg>
