<svg width="186" height="186" viewBox="0 0 186 186" fill="none" xmlns="http://www.w3.org/2000/svg">
<path d="M8.11348 29.4541L32.8748 4.71916C35.8974 1.69704 39.9429 0 44.2209 0C48.4989 0 52.5444 1.67379 55.5669 4.71916L82.2348 31.3371C85.2573 34.3592 86.9546 38.4275 86.9546 42.7049C86.9546 47.0056 85.2806 51.0274 82.2348 54.0727L61.4027 74.9254C66.1484 85.9814 72.9672 96.0267 81.4908 104.519C90.0236 113.097 99.9979 119.862 111.065 124.651L131.897 103.798C134.92 100.776 138.965 99.0791 143.243 99.0791C145.353 99.0713 147.444 99.4847 149.392 100.295C151.34 101.105 153.107 102.296 154.589 103.798L181.28 130.416C184.303 133.438 186 137.507 186 141.784C186 146.085 184.326 150.106 181.28 153.152L156.542 177.887C151.381 183.048 144.266 186 136.966 186C135.454 186 133.99 185.884 132.502 185.628C101.718 180.56 71.1677 164.171 46.4994 139.529C21.8543 114.841 5.48621 84.294 0.371184 53.4916C-1.09357 44.7507 1.83595 35.754 8.11348 29.4541V29.4541ZM16.8555 50.7252C21.3893 78.1335 36.1299 105.472 58.3337 127.673C80.5375 149.874 107.856 164.613 135.268 169.146C138.709 169.727 142.243 168.565 144.754 166.077L169.051 141.784L143.29 116.003L115.436 143.9L115.227 144.109L110.205 142.249C94.9775 136.651 81.1498 127.81 69.68 116.337C58.2101 104.865 49.3723 91.0359 43.7791 75.8088L41.9191 70.7874L70.0052 42.7282L44.2441 16.9471L19.9478 41.2403C17.4368 43.751 16.2743 47.2846 16.8555 50.7252Z" fill="#000"/>
</svg>
