<svg width="186" height="186" viewBox="0 0 186 186" fill="none" xmlns="http://www.w3.org/2000/svg">
<path d="M178.112 0H7.61213C6.15136 0.00413515 4.7215 0.421033 3.48741 1.20262C2.25332 1.98421 1.26525 3.09867 0.637127 4.4175C0.0926276 5.67608 -0.108177 7.05659 0.0552076 8.41813C0.218593 9.77967 0.740318 11.0735 1.56713 12.1675L30.8621 49.3675V178.25C30.8621 180.305 31.6786 182.277 33.1321 183.73C34.5855 185.183 36.5567 186 38.6121 186H178.112C180.168 186 182.139 185.183 183.592 183.73C185.046 182.277 185.862 180.305 185.862 178.25V7.75C185.862 5.69457 185.046 3.72333 183.592 2.26992C182.139 0.816517 180.168 0 178.112 0ZM170.362 170.5H46.3621V46.5C46.3696 44.7253 45.7677 43.0018 44.6571 41.6175L23.7321 15.5H170.362V170.5Z" fill="#000"/>
<path d="M69.6133 54.25H147.113C149.169 54.25 151.14 53.4335 152.593 51.9801C154.047 50.5267 154.863 48.5554 154.863 46.5C154.863 44.4446 154.047 42.4733 152.593 41.0199C151.14 39.5665 149.169 38.75 147.113 38.75H69.6133C67.5579 38.75 65.5866 39.5665 64.1332 41.0199C62.6798 42.4733 61.8633 44.4446 61.8633 46.5C61.8633 48.5554 62.6798 50.5267 64.1332 51.9801C65.5866 53.4335 67.5579 54.25 69.6133 54.25V54.25Z" fill="#000"/>
<path d="M69.6133 100.75H147.113C149.169 100.75 151.14 99.9335 152.593 98.4801C154.047 97.0267 154.863 95.0554 154.863 93C154.863 90.9446 154.047 88.9733 152.593 87.5199C151.14 86.0665 149.169 85.25 147.113 85.25H69.6133C67.5579 85.25 65.5866 86.0665 64.1332 87.5199C62.6798 88.9733 61.8633 90.9446 61.8633 93C61.8633 95.0554 62.6798 97.0267 64.1332 98.4801C65.5866 99.9335 67.5579 100.75 69.6133 100.75V100.75Z" fill="#000"/>
<path d="M69.6133 147.25H147.113C149.169 147.25 151.14 146.433 152.593 144.98C154.047 143.527 154.863 141.555 154.863 139.5C154.863 137.445 154.047 135.473 152.593 134.02C151.14 132.567 149.169 131.75 147.113 131.75H69.6133C67.5579 131.75 65.5866 132.567 64.1332 134.02C62.6798 135.473 61.8633 137.445 61.8633 139.5C61.8633 141.555 62.6798 143.527 64.1332 144.98C65.5866 146.433 67.5579 147.25 69.6133 147.25V147.25Z" fill="#000"/>
</svg>
