<svg width="186" height="186" viewBox="0 0 186 186" fill="none" xmlns="http://www.w3.org/2000/svg">
<path d="M93.0181 1.43777e-05C68.3578 1.43777e-05 44.7075 9.79754 27.27 27.2373C9.8325 44.677 0.0362218 68.3303 0.0362218 92.9938C-0.220513 107.847 3.35553 122.516 10.4192 135.585L1.12101 161.034C-0.0893703 164.361 -0.325291 167.964 0.440967 171.42C1.20723 174.876 2.94383 178.042 5.44676 180.545C7.94968 183.049 11.115 184.785 14.5707 185.552C18.0264 186.318 21.6291 186.082 24.9554 184.872L50.4014 175.572C63.4746 182.653 78.1532 186.24 93.0181 185.988C111.511 186.006 129.584 180.477 144.902 170.117L133.31 155.455C121.314 163.242 107.32 167.388 93.0181 167.389C78.5865 167.822 64.4179 163.462 52.726 154.99L18.6326 167.389L31.0302 133.291C22.5592 121.598 18.1996 107.427 18.6326 92.9938C18.6326 73.263 26.4696 54.3403 40.4196 40.3886C54.3696 26.4368 73.2898 18.5988 93.0181 18.5988C112.746 18.5988 131.667 26.4368 145.617 40.3886C159.567 54.3403 167.404 73.263 167.404 92.9938V105.393C167.404 109.504 165.771 113.446 162.865 116.352C159.958 119.259 156.017 120.892 151.907 120.892C147.797 120.892 143.855 119.259 140.949 116.352C138.042 113.446 136.41 109.504 136.41 105.393V92.9938C136.415 82.9731 132.953 73.2592 126.611 65.5013C120.27 57.7434 111.439 52.4195 101.618 50.4334C91.7975 48.4473 81.5922 49.9215 72.7349 54.6057C63.8775 59.2898 56.9139 66.8953 53.0262 76.1309C49.1385 85.3665 48.5663 95.663 51.4068 105.273C54.2473 114.882 60.3254 123.213 68.6092 128.849C76.8931 134.486 86.8722 137.082 96.8524 136.197C106.833 135.311 116.199 130.999 123.361 123.992C127.375 130.139 133.266 134.826 140.157 137.356C147.048 139.887 154.572 140.125 161.61 138.035C168.647 135.946 174.822 131.64 179.217 125.759C183.611 119.878 185.99 112.735 186 105.393V89.894C185.196 65.7717 175.045 42.9072 157.694 26.1323C140.343 9.35749 117.151 -0.0133979 93.0181 1.43777e-05V1.43777e-05ZM93.0181 117.792C88.1141 117.792 83.3202 116.338 79.2427 113.613C75.1651 110.888 71.987 107.015 70.1104 102.484C68.2337 97.9524 67.7426 92.9663 68.6994 88.1559C69.6561 83.3454 72.0176 78.9268 75.4853 75.4587C78.9529 71.9906 83.371 69.6288 88.1808 68.6719C92.9906 67.7151 97.9761 68.2062 102.507 70.0831C107.038 71.96 110.91 75.1385 113.635 79.2166C116.359 83.2946 117.813 88.0891 117.813 92.9938C117.813 99.5707 115.201 105.878 110.551 110.529C105.901 115.179 99.5942 117.792 93.0181 117.792Z" fill="#000"/>
</svg>
