<svg width="195" height="187" viewBox="0 0 195 187" fill="none" xmlns="http://www.w3.org/2000/svg">
<path d="M163.568 0H30.9736C13.8944 0 0 13.2466 0 29.5285V124.214C0 140.496 13.8944 153.742 30.9736 153.742H43.1281L43.3659 179.81C43.387 182.213 44.8343 184.396 47.1013 185.447C48.0226 185.874 49.0147 186.083 50.0018 186.083C51.4431 186.083 52.874 185.636 54.0578 184.764L96.2187 153.742H163.568C180.647 153.742 194.542 140.496 194.542 124.214V29.5285C194.542 13.2465 180.647 0 163.568 0ZM178.187 123.123H178.186C178.186 132.126 170.503 139.451 161.059 139.451H94.4274C93.0078 139.451 91.6277 139.899 90.5035 140.727L58.2055 164.491L58.0323 145.52C58.002 142.16 55.1353 139.451 51.6102 139.451H33.4819C24.038 139.451 16.355 132.126 16.355 123.123V31.6654C16.355 22.6621 24.038 15.3375 33.4819 15.3375H161.06C170.504 15.3375 178.187 22.6621 178.187 31.6654V123.123Z" fill="#000"/>
</svg>
