<svg width="21" height="21" viewBox="0 0 21 21" fill="none" xmlns="http://www.w3.org/2000/svg">
<circle cx="10.5" cy="10.5" r="10.5" fill="#000"/>
<path d="M14.9267 11.5139C14.7694 11.5139 14.642 11.6414 14.642 11.7987V14.3267C14.6414 14.7983 14.2594 15.1805 13.7878 15.1809H5.79864C5.32706 15.1805 4.94501 14.7983 4.94445 14.3267V6.90703C4.94501 6.43557 5.32706 6.05341 5.79864 6.05285H8.3267C8.48397 6.05285 8.61143 5.92539 8.61143 5.76813C8.61143 5.61097 8.48397 5.4834 8.3267 5.4834H5.79864C5.01274 5.48429 4.37589 6.12114 4.375 6.90703V14.3268C4.37589 15.1127 5.01274 15.7496 5.79864 15.7505H13.7878C14.5737 15.7496 15.2105 15.1127 15.2114 14.3268V11.7987C15.2114 11.6414 15.084 11.5139 14.9267 11.5139Z" fill="#fff"/>
<path d="M15.0986 4.75029C14.5982 4.2499 13.787 4.2499 13.2866 4.75029L8.2069 9.83C8.17209 9.86481 8.14696 9.90797 8.13383 9.95535L7.46583 12.367C7.43836 12.4658 7.46628 12.5717 7.5388 12.6444C7.61142 12.7169 7.71731 12.7448 7.81618 12.7174L10.2278 12.0493C10.2752 12.0362 10.3183 12.0111 10.3531 11.9762L15.4327 6.89642C15.9324 6.3957 15.9324 5.58512 15.4327 5.0844L15.0986 4.75029ZM8.8273 10.0151L12.9846 5.85761L14.3254 7.19839L10.168 11.3558L8.8273 10.0151ZM8.55948 10.5525L9.63065 11.6238L8.14896 12.0343L8.55948 10.5525ZM15.0301 6.4938L14.7282 6.79576L13.3873 5.45488L13.6893 5.15291C13.9673 4.87497 14.418 4.87497 14.6959 5.15291L15.0301 5.48702C15.3076 5.7653 15.3076 6.21563 15.0301 6.4938Z" fill="#fff"/>
</svg>
