<svg width="79" height="79" viewBox="0 0 79 79" fill="none" xmlns="http://www.w3.org/2000/svg">
<circle cx="39.5" cy="39.5" r="38" stroke="#000" stroke-width="3"/>
<path d="M35.7438 39.5003L19.7792 23.5349C18.7403 22.4964 18.7403 20.8173 19.7792 19.7789C20.8177 18.7404 22.4967 18.7404 23.5352 19.7789L39.5002 35.7443L55.4648 19.7789C56.5038 18.7404 58.1823 18.7404 59.2208 19.7789C60.2597 20.8173 60.2597 22.4964 59.2208 23.5349L43.2562 39.5003L59.2208 55.4657C60.2597 56.5042 60.2597 58.1833 59.2208 59.2217C58.7033 59.7398 58.0228 60 57.3428 60C56.6628 60 55.9828 59.7398 55.4648 59.2217L39.5002 43.2564L23.5352 59.2217C23.0172 59.7398 22.3372 60 21.6572 60C20.9772 60 20.2972 59.7398 19.7792 59.2217C18.7403 58.1833 18.7403 56.5042 19.7792 55.4657L35.7438 39.5003Z" fill="#000"/>
</svg>
