<svg width="19" height="12" viewBox="0 0 19 12" fill="none" xmlns="http://www.w3.org/2000/svg">
<path d="M18.1083 5.45322C17.9455 5.23051 14.0663 0 9.11197 0C4.1576 0 0.278274 5.23051 0.115645 5.45301C-0.0385484 5.6643 -0.0385484 5.95086 0.115645 6.16215C0.278274 6.38486 4.1576 11.6154 9.11197 11.6154C14.0663 11.6154 17.9455 6.38483 18.1083 6.16233C18.2627 5.95108 18.2627 5.6643 18.1083 5.45322ZM9.11197 10.4138C5.46255 10.4138 2.30176 6.94219 1.3661 5.80728C2.30055 4.67136 5.45472 1.20158 9.11197 1.20158C12.7612 1.20158 15.9218 4.67257 16.8578 5.80809C15.9234 6.94397 12.7692 10.4138 9.11197 10.4138Z" fill="#000"/>
<path d="M9.11211 2.20264C7.12447 2.20264 5.50732 3.81978 5.50732 5.80742C5.50732 7.79507 7.12447 9.41221 9.11211 9.41221C11.0998 9.41221 12.7169 7.79507 12.7169 5.80742C12.7169 3.81978 11.0998 2.20264 9.11211 2.20264ZM9.11211 8.21059C7.78695 8.21059 6.70894 7.13256 6.70894 5.80742C6.70894 4.48229 7.78698 3.40426 9.11211 3.40426C10.4372 3.40426 11.5153 4.48229 11.5153 5.80742C11.5153 7.13256 10.4373 8.21059 9.11211 8.21059Z" fill="#000"/>
</svg>
