<svg width="22" height="19" viewBox="0 0 22 19" fill="none" xmlns="http://www.w3.org/2000/svg">
<path d="M10.274 3.01676L11.0555 3.99547L11.8369 3.01676C12.847 1.75173 14.289 1 15.8939 1C17.8025 1 19.6109 2.15796 20.4741 3.97549C21.3168 5.7498 21.2984 8.26687 19.2795 11.0326L19.2709 11.0443L19.2627 11.0563C18.4685 12.2136 17.2504 13.512 15.8003 14.7205C14.5529 15.7111 13.3021 16.5398 12.3493 17.1207C11.8722 17.4116 11.4744 17.6376 11.1943 17.7885C11.0969 17.841 11.0165 17.8829 10.9538 17.9145H10.8739H10.8191C10.7561 17.885 10.6738 17.8448 10.5732 17.7936C10.2966 17.6529 9.90263 17.4393 9.42993 17.1579C8.48329 16.5945 7.23938 15.7703 5.99958 14.7301L5.99673 14.7278C4.54396 13.5181 3.32336 12.2179 2.52756 11.0591C0.665141 8.30467 0.704735 5.78195 1.58982 3.98916C2.4944 2.15688 4.31078 1 6.21702 1C7.72367 1 9.2701 1.75948 10.274 3.01676Z" stroke="#000" stroke-width="2"/>
</svg>
