<svg width="17" height="22" viewBox="0 0 17 22" fill="none" xmlns="http://www.w3.org/2000/svg">
<path d="M15.4748 3.65344C13.8707 1.33179 11.3284 0 8.50025 0C5.67213 0 3.12981 1.33179 1.52568 3.65344C-0.0705826 5.96334 -0.439164 8.88774 0.537756 11.4714C0.799059 12.177 1.21443 12.8625 1.76937 13.5048L7.94091 20.7539C8.08049 20.918 8.28499 21.0126 8.50025 21.0126C8.7155 21.0126 8.92001 20.9181 9.05958 20.7539L15.2294 13.5068C15.7868 12.8608 16.2016 12.176 16.4608 11.4761C17.4397 8.88774 17.0711 5.96334 15.4748 3.65344ZM15.0849 10.9615C14.8851 11.5015 14.5589 12.0354 14.1159 12.549C14.1146 12.5502 14.1134 12.5514 14.1124 12.5529L8.50025 19.1447L2.88464 12.5488C2.44186 12.0357 2.11563 11.5018 1.91383 10.9567C1.10592 8.8199 1.41253 6.40198 2.73427 4.48906C4.06015 2.57002 6.1619 1.4694 8.50025 1.4694C10.8386 1.4694 12.9401 2.56998 14.266 4.48906C15.588 6.40198 15.8948 8.8199 15.0849 10.9615Z" fill="#000"/>
<path d="M8.50059 4.35864C6.23205 4.35864 4.38623 6.20422 4.38623 8.473C4.38623 10.7418 6.23181 12.5874 8.50059 12.5874C10.7694 12.5874 12.6149 10.7418 12.6149 8.473C12.6149 6.20447 10.7691 4.35864 8.50059 4.35864ZM8.50059 11.1179C7.04219 11.1179 5.85563 9.93136 5.85563 8.47296C5.85563 7.01456 7.04219 5.828 8.50059 5.828C9.95899 5.828 11.1455 7.01456 11.1455 8.47296C11.1455 9.93136 9.95899 11.1179 8.50059 11.1179Z" fill="#000"/>
</svg>
