<svg width="308" height="308" viewBox="0 0 308 308" fill="none" xmlns="http://www.w3.org/2000/svg">
<path fill-rule="evenodd" clip-rule="evenodd" d="M298.556 131.583L273.296 106.193C272.335 105.369 271.923 104.134 271.923 102.899V67.2155C271.923 49.7854 257.783 35.7865 240.486 35.7865H204.655C203.419 35.7865 202.321 35.3748 201.36 34.4141L175.963 9.16107C163.744 -3.05369 143.838 -3.05369 131.62 9.16107L106.223 34.4141C105.399 35.3748 104.164 35.7865 102.928 35.7865H67.2344C49.7994 35.7865 35.7966 49.9227 35.7966 67.2155V102.899C35.7966 104.134 35.3847 105.232 34.4237 106.193L9.16365 131.583C-3.05455 143.798 -3.05455 163.698 9.16365 175.913L34.4237 201.303C35.3847 202.127 35.7966 203.362 35.7966 204.597V240.418C35.7966 257.848 49.9367 271.847 67.2344 271.847H102.928C104.164 271.847 105.262 272.259 106.223 273.22L131.62 298.473C143.701 310.687 163.47 310.825 175.688 298.747L175.963 298.473L201.36 273.22C202.184 272.259 203.419 271.847 204.655 271.847H240.486C257.921 271.847 271.923 257.711 271.923 240.418V204.597C271.923 203.362 272.335 202.264 273.296 201.303L298.556 175.913C310.775 163.698 310.775 143.798 298.556 131.583ZM237 153.5C237 199.063 200.063 236 154.5 236C108.937 236 72 199.063 72 153.5C72 107.937 108.937 71 154.5 71C200.063 71 237 107.937 237 153.5ZM206 153C206 181.167 183.167 204 155 204C126.833 204 104 181.167 104 153C104 124.833 126.833 102 155 102C183.167 102 206 124.833 206 153Z" fill="#000"/>
</svg>
