<svg width="166" height="174" viewBox="0 0 166 174" fill="none" xmlns="http://www.w3.org/2000/svg">
<path d="M28.9881 115.123C32.829 115.121 36.6308 114.379 40.1706 112.939C43.7104 111.5 46.9169 109.392 49.6019 106.74L108.4 139.032C106.635 145.597 107.401 152.557 110.558 158.616C113.715 164.674 119.045 169.417 125.556 171.961C132.067 174.504 139.314 174.674 145.945 172.439C152.576 170.204 158.139 165.716 161.596 159.812C165.053 153.909 166.169 146.993 164.735 140.353C163.302 133.714 159.416 127.805 153.803 123.728C148.191 119.651 141.234 117.684 134.23 118.194C127.227 118.705 120.655 121.657 115.739 126.502L56.9704 94.2094C58.2548 89.6056 58.2548 84.7556 56.9704 80.1518L115.769 47.9749C120.726 52.8904 127.366 55.8964 134.45 56.4322C141.533 56.968 148.577 54.9969 154.266 50.8867C159.956 46.7765 163.902 40.8079 165.369 34.0946C166.836 27.3813 165.724 20.3818 162.24 14.4022C158.756 8.42251 153.138 3.8711 146.434 1.59715C139.73 -0.676799 132.399 -0.517962 125.807 2.04403C119.216 4.60602 113.815 9.39615 110.612 15.5207C107.409 21.6452 106.623 28.6858 108.4 35.3288L49.6019 67.621C46.2607 64.3295 42.1282 61.8871 37.5726 60.5116C33.017 59.1361 28.1798 58.8702 23.492 59.7374C18.8041 60.6047 14.4113 62.5783 10.7047 65.4823C6.99823 68.3863 4.09319 72.1306 2.24848 76.3815C0.403765 80.6324 -0.323339 85.258 0.13195 89.846C0.58724 94.4341 2.21078 98.8421 4.85793 102.677C7.50507 106.513 11.0936 109.656 15.3038 111.828C19.5139 113.999 24.215 115.131 28.9881 115.123V115.123ZM136.383 132.407C139.156 132.407 141.867 133.201 144.172 134.689C146.478 136.176 148.275 138.291 149.336 140.765C150.398 143.239 150.675 145.961 150.134 148.587C149.593 151.214 148.258 153.626 146.297 155.52C144.336 157.413 141.838 158.703 139.118 159.225C136.398 159.747 133.579 159.479 131.017 158.455C128.455 157.43 126.265 155.694 124.725 153.468C123.184 151.241 122.362 148.624 122.362 145.946C122.37 142.358 123.849 138.918 126.477 136.381C129.105 133.843 132.667 132.415 136.383 132.407V132.407ZM136.383 14.8761C139.156 14.8761 141.867 15.6702 144.172 17.1579C146.478 18.6456 148.275 20.7601 149.336 23.2341C150.398 25.708 150.675 28.4303 150.134 31.0566C149.593 33.6829 148.258 36.0953 146.297 37.9888C144.336 39.8823 141.838 41.1718 139.118 41.6942C136.398 42.2166 133.579 41.9485 131.017 40.9237C128.455 39.899 126.265 38.1636 124.725 35.9372C123.184 33.7107 122.362 31.093 122.362 28.4152C122.37 24.8268 123.849 21.3875 126.477 18.8501C129.105 16.3126 132.667 14.8838 136.383 14.8761V14.8761ZM28.9881 73.6416C31.7612 73.6416 34.472 74.4356 36.7777 75.9233C39.0835 77.411 40.8806 79.5255 41.9418 81.9995C43.003 84.4734 43.2807 87.1957 42.7397 89.822C42.1987 92.4483 40.8633 94.8608 38.9024 96.7542C36.9416 98.6477 34.4433 99.9372 31.7235 100.46C29.0037 100.982 26.1845 100.714 23.6225 99.6891C21.0605 98.6644 18.8707 96.9291 17.3301 94.7026C15.7895 92.4761 14.9671 89.8584 14.9671 87.1806C14.975 83.5922 16.4548 80.1529 19.0825 77.6155C21.7102 75.078 25.2719 73.6492 28.9881 73.6416Z" fill="#000"/>
</svg>
