<svg width="308" height="308" viewBox="0 0 308 308" fill="none" xmlns="http://www.w3.org/2000/svg">
<path fill-rule="evenodd" clip-rule="evenodd" d="M298.556 131.863L273.296 106.473C272.335 105.65 271.923 104.414 271.923 103.179V67.4955C271.923 50.0655 257.783 36.0665 240.486 36.0665H204.655C203.419 36.0665 202.321 35.6548 201.36 34.6941L175.963 9.4411C163.744 -2.77366 143.838 -2.77366 131.62 9.4411L106.223 34.6941C105.399 35.6548 104.164 36.0665 102.928 36.0665H67.2344C49.7994 36.0665 35.7966 50.2027 35.7966 67.4955V103.179C35.7966 104.414 35.3847 105.512 34.4237 106.473L9.16365 131.863C-3.05455 144.078 -3.05455 163.978 9.16365 176.193L34.4237 201.583C35.3847 202.407 35.7966 203.642 35.7966 204.877V240.698C35.7966 258.128 49.9367 272.127 67.2344 272.127H102.928C104.164 272.127 105.262 272.539 106.223 273.5L131.62 298.753C143.701 310.967 163.47 311.105 175.688 299.027L175.963 298.753L201.36 273.5C202.184 272.539 203.419 272.127 204.655 272.127H240.486C257.921 272.127 271.923 257.991 271.923 240.698V204.877C271.923 203.642 272.335 202.544 273.296 201.583L298.556 176.193C310.775 163.978 310.775 144.078 298.556 131.863ZM208.229 99.0576C213.733 92.9542 222.728 92.9542 228.232 99.0576C233.736 105.161 233.736 115.135 228.232 121.238L143.389 215.32C143.187 215.543 142.986 215.729 142.785 215.915C142.583 216.101 142.382 216.287 142.181 216.51C136.542 221.572 128.353 221.274 123.118 215.468L79.4881 167.088C73.984 160.985 73.984 151.011 79.4881 144.907C84.9921 138.804 93.9866 138.804 99.4906 144.907L133.186 182.272L208.229 99.0576Z" fill="#000"/>
</svg>
