<svg width="307" height="308" viewBox="0 0 307 308" fill="none" xmlns="http://www.w3.org/2000/svg">
<path d="M297.858 131.703L272.657 106.29C271.698 105.465 271.287 104.229 271.287 102.993V67.2767C271.287 49.8307 257.18 35.8191 239.923 35.8191H204.176C202.943 35.8191 201.848 35.407 200.889 34.4454L175.551 9.16941C163.361 -3.05647 143.502 -3.05647 131.312 9.16941L105.974 34.4454C105.152 35.407 103.92 35.8191 102.687 35.8191H67.0771C49.6829 35.8191 35.7128 49.9681 35.7128 67.2767V102.993C35.7128 104.229 35.3019 105.328 34.3432 106.29L9.1422 131.703C-3.0474 143.929 -3.0474 163.847 9.1422 176.073L34.3432 201.487C35.3019 202.311 35.7128 203.547 35.7128 204.783V240.637C35.7128 258.083 49.8199 272.094 67.0771 272.094H102.687C103.92 272.094 105.016 272.507 105.974 273.468L131.312 298.744C143.365 310.97 163.087 311.107 175.277 299.019C175.414 298.881 175.414 298.881 175.551 298.744L200.889 273.468C201.711 272.507 202.943 272.094 204.176 272.094H239.923C257.317 272.094 271.287 257.945 271.287 240.637V204.783C271.287 203.547 271.698 202.448 272.657 201.487L297.858 176.073C310.047 163.847 310.047 143.929 297.858 131.703ZM278.957 157.116L253.619 182.392C247.73 188.299 244.443 196.404 244.443 204.783V240.637C244.443 243.109 242.388 245.17 239.923 245.17H204.176C195.821 245.17 187.877 248.467 181.851 254.374L156.65 279.787C154.87 281.573 151.993 281.573 150.213 279.787L125.012 254.374C119.123 248.467 111.042 245.17 102.687 245.17H67.0771C64.6118 245.17 62.5573 243.109 62.5573 240.637V204.783C62.5573 196.404 59.2702 188.436 53.3809 182.392L28.0429 157.116C26.2624 155.33 26.2624 152.446 28.0429 150.66L53.3809 125.384C59.2702 119.477 62.5573 111.372 62.5573 102.993V67.2767C62.5573 64.804 64.6118 62.7435 67.0771 62.7435H102.687C111.042 62.7435 118.986 59.4466 125.012 53.5397L150.213 28.1264C151.993 26.3406 154.87 26.3406 156.65 28.1264L181.851 53.5397C187.74 59.4466 195.821 62.7435 204.176 62.7435H239.923C242.388 62.7435 244.443 64.804 244.443 67.2767V102.993C244.443 111.372 247.73 119.34 253.619 125.384L278.957 150.66C280.738 152.446 280.738 155.33 278.957 157.116Z" fill="#000"/>
<path d="M227.872 98.5921C222.368 92.4693 213.373 92.4693 207.869 98.5921L132.826 182.072L99.1306 144.588C93.6265 138.465 84.6321 138.465 79.128 144.588C73.624 150.711 73.624 160.716 79.128 166.839L122.758 215.374C127.993 221.198 136.182 221.496 141.821 216.419C142.223 215.971 142.626 215.672 143.029 215.224L227.872 120.843C233.376 114.721 233.376 104.715 227.872 98.5921Z" fill="#000"/>
</svg>
