<svg width="113" height="32" viewBox="0 0 113 32" fill="none" xmlns="http://www.w3.org/2000/svg">
<path d="M0 0.101562H7.44809V21.743C7.44809 22.2758 7.47076 22.7179 7.52744 23.0807C7.58413 23.4434 7.68615 23.7269 7.84487 23.9536C8.00358 24.1803 8.20763 24.339 8.47971 24.4411C8.75179 24.5431 9.09188 24.5884 9.51133 24.5884C9.6247 24.5884 9.73806 24.5884 9.85143 24.5884C9.96479 24.5884 10.0668 24.5771 10.1462 24.5658C10.2482 24.5658 10.3389 24.5544 10.4183 24.5431V31.0049C10.2029 31.0276 9.98747 31.0502 9.7494 31.0729C9.55668 31.0956 9.31861 31.1183 9.04654 31.1296C8.77446 31.1409 8.49105 31.1409 8.1963 31.1409C7.53878 31.1409 6.86993 31.1069 6.21241 31.0389C5.54355 30.9709 4.90871 30.8235 4.30787 30.6195C3.70704 30.4041 3.14021 30.1093 2.61873 29.7352C2.09725 29.3611 1.63246 28.851 1.24702 28.2274C0.861575 27.6039 0.555489 26.8444 0.340095 25.9488C0.124702 25.0532 0.0113365 23.9876 0.0113365 22.7519V0.101562H0Z" fill="#000"/>
<path d="M14.2275 8.6951H21.755V31.1301H14.2275V8.6951ZM14.3182 0H21.6756V5.87231H14.3182V0Z" fill="#000"/>
<path d="M28.3074 14.93H25.4619V8.71761H28.5341V2.73193H35.7781V8.71761H40.4261V14.93H35.7781V21.7546C35.7781 22.3894 35.9142 22.8883 36.1976 23.2624C36.481 23.6365 36.8211 23.9199 37.2179 24.1126C37.6147 24.3053 38.0454 24.4414 38.4989 24.498C38.9524 24.5661 39.3605 24.5887 39.7346 24.5887C39.8933 24.5887 40.0293 24.5887 40.1427 24.5887C40.2674 24.5887 40.3581 24.5774 40.4488 24.5661C40.5508 24.5661 40.6415 24.5547 40.7209 24.5434V31.0052C40.5508 31.0279 40.3581 31.0505 40.154 31.0732C39.7913 31.1186 39.3038 31.1412 38.703 31.1412C38.1135 31.1412 37.4446 31.1072 36.7077 31.0392C35.9595 30.9712 35.2113 30.8238 34.4291 30.6198C33.6582 30.4044 32.91 30.1096 32.1731 29.7355C31.4476 29.3614 30.7901 28.8513 30.2119 28.2277C29.6337 27.6042 29.169 26.8447 28.8175 25.9491C28.4661 25.0535 28.296 23.9879 28.296 22.7522V14.93H28.3074Z" fill="#000"/>
<path d="M46.2068 14.93H43.3613V8.74028H46.4335V2.73193H53.6776V8.74028H58.3255V14.9187H53.6776V21.7433C53.6776 22.3781 53.8136 22.8769 54.097 23.251C54.3804 23.6251 54.7205 23.9085 55.1173 24.1013C55.5141 24.294 55.9449 24.43 56.3983 24.4867C56.8518 24.5547 57.2599 24.5774 57.634 24.5774C57.7927 24.5774 57.9287 24.5774 58.0421 24.5774C58.1668 24.5774 58.2575 24.5661 58.3482 24.5547C58.4502 24.5547 58.5409 24.5434 58.6203 24.532V30.9939C58.4502 31.0165 58.2575 31.0392 58.0535 31.0619C57.6907 31.1072 57.2032 31.1299 56.6024 31.1299C56.0129 31.1299 55.344 31.0959 54.6071 31.0279C53.8589 30.9599 53.1107 30.8125 52.3285 30.6084C51.5576 30.393 50.8094 30.0983 50.0725 29.7242C49.347 29.3501 48.6895 28.8399 48.1113 28.2164C47.5332 27.5929 47.0684 26.8334 46.7169 25.9378C46.3655 25.0422 46.1955 23.9766 46.1955 22.7409V14.93H46.2068Z" fill="#000"/>
<path d="M61.3867 19.8958C61.3867 18.32 61.6475 16.8576 62.1576 15.4972C62.6677 14.1368 63.416 12.9465 64.3682 11.9376C65.3318 10.9286 66.4995 10.135 67.8712 9.55689C69.2429 8.97873 70.8074 8.69531 72.5418 8.69531C74.129 8.69531 75.5347 8.95605 76.759 9.47753C77.9834 9.99901 79.0263 10.7245 79.8652 11.6428C80.7155 12.5611 81.3617 13.6607 81.7924 14.9304C82.2346 16.2001 82.45 17.5718 82.45 19.0682C82.45 19.2496 82.4386 19.465 82.4159 19.7144C82.3933 19.9751 82.3706 20.2132 82.3479 20.4513C82.3253 20.7234 82.2912 21.0068 82.2686 21.3015H68.7668C68.9028 21.9477 69.1296 22.5259 69.447 23.0133C69.7644 23.5008 70.1498 23.8976 70.592 24.215C71.0341 24.5324 71.5329 24.7591 72.0884 24.9179C72.6325 25.0766 73.1994 25.1559 73.7662 25.1559C74.5371 25.1559 75.2739 25.0426 75.9768 24.8158C76.6797 24.5891 77.3145 24.3397 77.87 24.079C78.5162 23.7502 79.117 23.3874 79.6612 22.9793L82.3253 28.0241C81.6224 28.6249 80.8062 29.1464 79.8879 29.5885C79.083 29.9853 78.1307 30.3367 77.0084 30.6655C75.8861 30.9942 74.6164 31.1529 73.1767 31.1529C71.2608 31.1529 69.5717 30.8355 68.1093 30.2007C66.6355 29.5658 65.3998 28.7156 64.4136 27.6726C63.416 26.6183 62.6677 25.428 62.1576 24.079C61.6361 22.7072 61.3867 21.3128 61.3867 19.8958ZM75.2059 17.175C75.2059 16.7669 75.1379 16.3815 75.0019 16.0187C74.8658 15.6559 74.6731 15.3272 74.435 15.0438C74.1856 14.7603 73.8909 14.5336 73.5395 14.3636C73.188 14.1935 72.8026 14.1142 72.3831 14.1142C71.873 14.1142 71.4195 14.2049 71.0228 14.3749C70.626 14.5563 70.2972 14.783 70.0138 15.0664C69.7304 15.3498 69.5037 15.6786 69.3336 16.0414C69.1522 16.4041 69.0162 16.7896 68.9255 17.175H75.2059Z" fill="#000"/>
<path d="M109.885 20.1902C109.601 20.0428 109.25 20.1222 109.068 20.3829C108.876 20.6437 108.91 20.9951 109.136 21.2218C109.964 22.0494 110.304 23.2284 110.043 24.3734C109.839 25.2576 109.307 26.0058 108.536 26.482C108.23 26.6747 107.912 26.7994 107.572 26.8901V25.0762V16.8686C107.572 15.3268 107.368 14.0231 106.971 12.9688C106.574 11.9145 106.03 11.0643 105.339 10.4181C104.647 9.78328 103.842 9.31848 102.913 9.0464C101.983 8.76299 100.974 8.62695 99.8972 8.62695C98.9563 8.62695 98.1174 8.74032 97.3918 8.97839C96.6663 9.21645 96.0201 9.52254 95.476 9.88531C94.9205 10.2594 94.4557 10.6562 94.0589 11.1096C93.6735 11.5518 93.356 11.9939 93.1066 12.4247H93.0273C93.0386 12.3 93.05 12.1639 93.0726 12.0052C93.084 11.8805 93.0953 11.7332 93.1066 11.5744C93.118 11.4157 93.118 11.2344 93.118 11.0416V9.12576H86.248V31.1413H93.4014V21.3919C93.4014 21.2898 93.4014 21.1878 93.4014 21.0744C90.7827 21.0518 88.6627 18.9205 88.6627 16.3018C88.6627 15.7576 88.7534 15.2248 88.9348 14.726C88.9688 14.624 89.0482 14.5559 89.1389 14.5106C89.683 14.3065 90.2498 14.2045 90.828 14.2045C91.4062 14.2045 91.9617 14.3065 92.4945 14.4993C93.3674 13.7397 94.467 13.3316 95.6233 13.3316C97.1991 13.3316 98.5935 14.0912 99.4664 15.2701C99.4891 15.2928 99.5004 15.3155 99.5118 15.3382C99.7725 15.7009 99.9766 16.0977 100.124 16.5172C100.215 16.7552 100.271 17.016 100.328 17.2654C100.373 17.5488 100.396 17.8662 100.396 18.2176V18.297V19.3853V31.1186H106.994H107.561C108.502 31.0619 109.431 30.7672 110.259 30.2457C111.574 29.4294 112.492 28.1371 112.844 26.6293C113.456 24.0673 112.231 21.4145 109.885 20.1902Z" fill="#000"/>
<path d="M94.3191 14.6582C94.047 14.6582 93.8203 14.8849 93.8203 15.157C93.8203 15.4291 94.047 15.6558 94.3191 15.6558C94.5912 15.6558 94.8179 15.4291 94.8179 15.157C94.8179 14.8849 94.5912 14.6582 94.3191 14.6582Z" fill="#000"/>
</svg>
