<svg width="28" height="26" viewBox="0 0 28 26" fill="none" xmlns="http://www.w3.org/2000/svg">
<path d="M2.31957 2.40277C5.36452 -0.800803 10.3207 -0.800803 13.3666 2.40205L13.9999 3.06714L14.6326 2.40235C17.6789 -0.800924 22.6344 -0.800562 25.6806 2.40235C27.1764 3.97524 28 6.06151 28 8.27628C28 10.4918 27.1764 12.5777 25.6804 14.1512L14.6763 25.7017C14.487 25.9008 14.2433 26 14 26C13.7567 26 13.5133 25.9004 13.3237 25.7013L2.31957 14.1512C0.823977 12.578 0 10.4918 0 8.27664C0 6.06151 0.823977 3.9756 2.31957 2.40277ZM3.67341 12.5762L14 23.4159L24.3263 12.5766C25.4283 11.418 26.0351 9.89076 26.0351 8.27664C26.0351 6.66252 25.4283 5.13528 24.3263 3.97669C23.1768 2.76736 21.6671 2.1631 20.157 2.1631C18.6467 2.1631 17.1363 2.76809 15.9869 3.97741L14.6769 5.35295C14.2977 5.75158 13.7027 5.75158 13.3234 5.35295L12.0131 3.97669C9.71387 1.55841 5.97302 1.55841 3.67374 3.97669C2.57206 5.13534 1.96492 6.66252 1.96492 8.27664C1.96492 9.89076 2.57206 11.4176 3.67341 12.5762Z" fill="#000"/>
</svg>
