<svg width="26" height="26" viewBox="0 0 26 26" fill="none" xmlns="http://www.w3.org/2000/svg">
<path d="M25.3018 11.3087C25.301 11.3081 25.3004 11.3073 25.2998 11.3067L14.6927 0.701185C14.2407 0.248908 13.6395 0 13.0001 0C12.3608 0 11.7596 0.248958 11.3073 0.701235L0.70588 11.3014C0.702318 11.3049 0.698502 11.3087 0.695143 11.3123C-0.233264 12.246 -0.231686 13.7609 0.699723 14.6922C1.12523 15.1178 1.68706 15.3643 2.28801 15.3902C2.31259 15.3926 2.33722 15.3938 2.362 15.3938H2.78456V23.1986C2.78456 24.7433 4.04153 25.9999 5.58637 25.9999H9.73619C10.157 25.9999 10.498 25.6588 10.498 25.2382V19.1192C10.498 18.4144 11.0715 17.8411 11.7763 17.8411H14.224C14.9289 17.8411 15.5022 18.4144 15.5022 19.1192V25.2383C15.5022 25.6588 15.8433 26 16.264 26H20.4139C21.9588 26 23.2157 24.7434 23.2157 23.1987V15.3939H23.6076C24.2469 15.3939 24.8479 15.1449 25.3005 14.6925C26.2328 13.7597 26.2331 12.2421 25.3018 11.3087ZM23.9741 13.367C23.8734 13.4677 23.75 13.5189 23.6075 13.5189H21.3404V23.1986C21.3404 23.7094 20.9247 24.125 20.4138 24.125H17.3773V19.1191C17.3773 17.3805 15.9627 15.9661 14.2239 15.9661H11.7762C10.0374 15.9661 8.62271 17.3805 8.62271 19.1191V24.125H5.58626C5.07532 24.125 4.65964 23.7094 4.65964 23.1986V13.5189H2.41126L2.36882 13.517C2.23713 13.5114 2.11851 13.4593 2.02585 13.3667C1.82414 13.165 1.82379 12.8365 2.02488 12.6342L12.6332 2.02703C12.7342 1.92608 12.8576 1.87495 13.0001 1.87495C13.1426 1.87495 13.2659 1.92598 13.3665 2.02667L23.9412 12.6L24.0267 12.6943C24.1745 12.8972 24.157 13.184 23.9741 13.367Z" fill="#000"/>
</svg>
