<svg width="27" height="26" viewBox="0 0 27 26" fill="none" xmlns="http://www.w3.org/2000/svg">
<path d="M22.7012 0H4.29875C1.92837 0 0 1.85085 0 4.1258V17.3554C0 19.6304 1.92837 21.4812 4.29875 21.4812H5.98565L6.01865 25.1235C6.02159 25.4592 6.22245 25.7643 6.53708 25.911C6.66496 25.9707 6.80264 26 6.93964 26C7.13967 26 7.33826 25.9375 7.50256 25.8157L13.354 21.4812H22.7012C25.0716 21.4812 27 19.6304 27 17.3554V4.1258C27 1.85083 25.0716 0 22.7012 0ZM24.7301 17.203C24.7301 18.461 23.6638 19.4844 22.3531 19.4844H13.1054C12.9083 19.4844 12.7168 19.5471 12.5608 19.6626L8.07821 22.9831L8.05417 20.3324C8.04997 19.8629 7.6521 19.4844 7.16286 19.4844H4.64688C3.33619 19.4844 2.26988 18.461 2.26988 17.203V4.42436C2.26988 3.1664 3.33619 2.14299 4.64688 2.14299H22.3531C23.6638 2.14299 24.7301 3.1664 24.7301 4.42436V17.203Z" fill="#000"/>
</svg>
