<svg width="26" height="26" viewBox="0 0 26 26" fill="none" xmlns="http://www.w3.org/2000/svg">
<path d="M18.0224 11.9967H14.0033V7.97763C14.0033 7.42519 13.5522 6.97412 12.9998 6.97412C12.4422 6.97412 11.9962 7.42519 11.9962 7.97763V11.9967H7.97714C7.41964 11.9967 6.97363 12.4478 6.97363 13.0002C6.97363 13.5527 7.4247 14.0037 7.97714 14.0037H11.9962V18.0229C11.9962 18.5753 12.4473 19.0264 12.9998 19.0264C13.5573 19.0264 14.0033 18.5753 14.0033 18.0229V14.0037H18.0224C18.5799 14.0037 19.0259 13.5527 19.0259 13.0002C19.0309 12.4478 18.5799 11.9967 18.0224 11.9967Z" fill="#000"/>
<path d="M20.0448 0H5.95517C2.66589 0 0 2.66589 0 5.95517V20.0448C0 23.3341 2.66589 26 5.95517 26H20.0448C23.3341 26 26 23.3341 26 20.0448V5.95517C26 2.66589 23.3341 0 20.0448 0ZM23.9727 20.0448C23.9727 22.209 22.209 23.9727 20.0448 23.9727H5.95517C3.79103 23.9727 2.02729 22.209 2.02729 20.0448V5.95517C2.02729 3.79103 3.79103 2.02729 5.95517 2.02729H20.0448C22.209 2.02729 23.9727 3.79103 23.9727 5.95517V20.0448Z" fill="#000"/>
</svg>
