<svg width="26" height="26" viewBox="0 0 26 26" fill="none" xmlns="http://www.w3.org/2000/svg">
<path d="M22.1914 16.8086C20.7746 15.3918 19.0887 14.3457 17.2504 13.7109C19.2207 12.3551 20.5156 10.0852 20.5156 7.51563C20.5156 3.37188 17.1437 0 13 0C8.85625 0 5.48438 3.37188 5.48438 7.51563C5.48438 10.0801 6.7793 12.3551 8.74961 13.7109C6.91133 14.3457 5.22539 15.3918 3.80859 16.8086C1.35078 19.2613 0 22.5266 0 26H0.142188H2.03125H23.9688H25.6445H26C26 22.5266 24.6492 19.2613 22.1914 16.8086ZM7.51563 7.51563C7.51563 4.48906 9.97344 2.03125 13 2.03125C16.0266 2.03125 18.4844 4.48906 18.4844 7.51563C18.4844 10.5422 16.0266 13 13 13C9.97344 13 7.51563 10.5422 7.51563 7.51563ZM2.21914 23.9688C3.17383 18.8855 7.64766 15.0313 13 15.0313C18.3523 15.0313 22.8262 18.8855 23.7809 23.9688H2.21914Z" fill="#000"/>
</svg>
