<svg width="27" height="23" viewBox="0 0 27 23" fill="none" xmlns="http://www.w3.org/2000/svg">
<path d="M19.3315 13.0247C17.5726 10.901 15.3493 9.73145 13.0712 9.73145C10.793 9.73145 8.56972 10.901 6.81092 13.0247C5.22992 14.9335 4.28613 17.3393 4.28613 19.46C4.28613 20.4901 4.60107 21.2748 5.22215 21.7923C5.83517 22.3031 6.64452 22.4759 7.54745 22.4758C8.50824 22.4758 9.57508 22.2802 10.6233 22.0879C11.5392 21.9199 12.4044 21.7612 13.0712 21.7612C13.6468 21.7612 14.4583 21.9118 15.3172 22.0712C17.3247 22.444 19.6001 22.8663 20.9146 21.7735C21.5394 21.2539 21.8563 20.4755 21.8563 19.46C21.8563 17.3393 20.9125 14.9335 19.3315 13.0247ZM19.9352 20.5956C19.1733 21.2292 17.1902 20.861 15.5967 20.5652C14.6664 20.3925 13.7876 20.2294 13.0711 20.2294C12.2649 20.2294 11.3333 20.4003 10.3468 20.5813C8.81853 20.8616 6.91656 21.2105 6.20255 20.6155C6.10737 20.5362 5.81776 20.2949 5.81776 19.4599C5.81776 17.7113 6.65034 15.6198 7.9905 14.0017C9.45309 12.2358 11.2574 11.2632 13.0711 11.2632C14.8847 11.2632 16.689 12.2358 18.1516 14.0017C19.4918 15.6198 20.3244 17.7113 20.3244 19.4599C20.3245 20.272 20.0315 20.5156 19.9352 20.5956Z" fill="#000"/>
<path d="M19.5115 1.49293C18.8679 0.54409 17.9464 0 16.9832 0C16.0199 0 15.0984 0.544192 14.4549 1.49293C13.8637 2.36456 13.5381 3.50921 13.5381 4.71606C13.5381 5.9229 13.8636 7.06755 14.4549 7.93918C15.0984 8.88797 16.0199 9.43216 16.9832 9.43216C17.9465 9.43216 18.8679 8.88797 19.5115 7.93918C20.1026 7.06755 20.4283 5.9229 20.4283 4.71606C20.4283 3.50921 20.1027 2.36451 19.5115 1.49293ZM18.2438 7.07939C18.0359 7.38601 17.5955 7.90043 16.9832 7.90043C16.3708 7.90043 15.9305 7.38606 15.7225 7.07939C15.3077 6.4678 15.0698 5.60638 15.0698 4.71606C15.0698 3.82568 15.3078 2.96431 15.7225 2.35272C15.9305 2.04611 16.3708 1.53168 16.9832 1.53168C17.5955 1.53168 18.0359 2.04605 18.2438 2.35272C18.6586 2.96431 18.8965 3.82573 18.8965 4.71606C18.8965 5.60638 18.6586 6.4678 18.2438 7.07939Z" fill="#000"/>
<path d="M11.6873 1.49298C11.0437 0.544141 10.1222 0 9.15895 0C8.19566 0 7.27414 0.544192 6.63064 1.49298C6.03947 2.36461 5.71387 3.50927 5.71387 4.71611C5.71387 5.92295 6.03942 7.0676 6.63064 7.93924C7.27419 8.88807 8.19566 9.43227 9.15895 9.43227C10.1222 9.43227 11.0437 8.88807 11.6873 7.93924C12.2784 7.0676 12.604 5.923 12.604 4.71611C12.604 3.50927 12.2784 2.36456 11.6873 1.49298ZM10.4195 7.0795C10.2115 7.38611 9.7712 7.90053 9.1589 7.90053C8.54654 7.90053 8.10621 7.38611 7.89824 7.0795C7.48344 6.46791 7.24555 5.60648 7.24555 4.71616C7.24555 3.82578 7.48349 2.96441 7.89824 2.35282C8.10621 2.04621 8.54654 1.53178 9.1589 1.53178C9.77126 1.53178 10.2115 2.04616 10.4195 2.35282C10.8343 2.96441 11.0722 3.82583 11.0722 4.71616C11.0722 5.60648 10.8343 6.46791 10.4195 7.0795Z" fill="#000"/>
<path d="M25.9908 8.89684C25.7314 8.01433 25.1753 7.37308 24.4251 7.09128C23.8214 6.86452 23.1399 6.90297 22.5061 7.19958C21.6328 7.60826 20.9189 8.45217 20.5477 9.51487C20.2443 10.3833 20.2065 11.3012 20.4412 12.0996C20.7007 12.9821 21.2568 13.6234 22.007 13.9052C22.2667 14.0027 22.5406 14.0511 22.819 14.0511C23.188 14.0511 23.5648 13.9659 23.926 13.7969C24.7994 13.3882 25.5133 12.5443 25.8845 11.4816V11.4816C26.1878 10.6132 26.2256 9.69526 25.9908 8.89684ZM24.4384 10.9764C24.2057 11.6423 23.7715 12.178 23.2768 12.4095C23.0948 12.4946 22.8204 12.5744 22.5456 12.4712C21.8824 12.2221 21.6245 11.0766 21.9936 10.02C22.2263 9.35413 22.6605 8.81842 23.1553 8.58686C23.2759 8.53044 23.4371 8.47637 23.6122 8.47637C23.7012 8.47637 23.7938 8.49036 23.8864 8.52513C24.5496 8.7743 24.8075 9.91977 24.4384 10.9764Z" fill="#000"/>
<path d="M5.59542 9.51479C5.22416 8.45209 4.5103 7.60823 3.63698 7.19955C3.00318 6.90295 2.32164 6.86455 1.71796 7.09126C0.967692 7.37311 0.411603 8.01436 0.15217 8.89682C-0.08255 9.69524 -0.0447149 10.6132 0.258629 11.4816V11.4816C0.629934 12.5443 1.34374 13.3882 2.21707 13.7968C2.57836 13.9659 2.95513 14.0511 3.32414 14.0511C3.60251 14.0511 3.8765 14.0026 4.13609 13.9051C4.88645 13.6233 5.44249 12.982 5.70193 12.0996C5.93654 11.3012 5.89871 10.3833 5.59542 9.51479ZM3.59741 12.4712C3.32266 12.5744 3.04816 12.4946 2.86629 12.4096C2.37157 12.1781 1.93726 11.6423 1.70468 10.9765V10.9765C1.33558 9.91985 1.59348 8.77443 2.25664 8.52526C2.53134 8.42207 2.80588 8.50188 2.98781 8.58694C3.48257 8.8185 3.91684 9.35421 4.14941 10.02C4.51852 11.0767 4.26057 12.2221 3.59741 12.4712Z" fill="#000"/>
</svg>
