<svg width="33" height="33" viewBox="0 0 33 33" fill="none" xmlns="http://www.w3.org/2000/svg">
<path d="M20.8593 17.2072C20.8588 16.9787 20.8331 16.7511 20.7825 16.5283C20.5845 15.688 20.0278 14.9767 19.2596 14.5825C18.4914 14.1884 17.589 14.151 16.7908 14.4802C16.3705 14.6562 15.8972 14.6562 15.477 14.4802C14.6787 14.151 13.7763 14.1884 13.0081 14.5825C12.2399 14.9767 11.6832 15.688 11.4852 16.5283C11.3134 17.2704 11.4325 18.05 11.8178 18.7071C11.5852 19.6958 11.4477 20.7045 11.4072 21.7194C11.4072 23.6393 14.1684 26.0378 15.8007 27.152C16.0014 27.2886 16.2653 27.2886 16.4659 27.152C18.0981 26.0378 20.8593 23.6393 20.8593 21.7194C20.8181 20.7029 20.682 19.6925 20.4528 18.7012C20.7168 18.2521 20.8571 17.7411 20.8593 17.2203V17.2072ZM18.7824 17.214C18.7812 17.3667 18.7397 17.517 18.6623 17.6489L18.2429 18.3626L18.4294 19.1691C18.6239 20.0101 18.7422 20.8731 18.7812 21.7354C18.763 21.8991 18.5465 22.4629 17.7144 23.3665C17.2737 23.845 16.7162 24.3548 16.1332 24.8174C15.5508 24.3551 14.9931 23.8452 14.5522 23.3665C13.7203 22.463 13.5038 21.8994 13.4854 21.7344C13.5238 20.8767 13.643 20.0185 13.8396 19.1826L14.0299 18.3736L13.6093 17.6565C13.4929 17.4579 13.4569 17.2252 13.5076 17.001C13.567 16.7541 13.7304 16.5463 13.9563 16.4304C14.0785 16.3676 14.2159 16.3345 14.3535 16.3345C14.4669 16.3345 14.5775 16.3563 14.6825 16.3992C15.1448 16.5917 15.6331 16.6892 16.134 16.6892C16.635 16.6892 17.1234 16.5916 17.5858 16.3991C17.6906 16.3562 17.8012 16.3345 17.9146 16.3345C18.0521 16.3345 18.1893 16.3677 18.3118 16.4304C18.5363 16.5457 18.6991 16.7518 18.7593 16.9967C18.7746 17.0671 18.7825 17.1394 18.7826 17.2115V17.214H18.7824Z" fill="#000"/>
<path d="M10.5439 8.4165H12.6208V12.2084H10.5439V8.4165Z" fill="#000"/>
<path d="M19.6445 8.4165H21.7214V12.2084H19.6445V8.4165Z" fill="#000"/>
<path d="M31.4759 19.1995C31.3979 19.0865 31.326 18.9679 31.2437 18.858C29.4622 16.4853 28.0917 13.9457 26.7666 8.64446C25.8736 5.08465 23.8637 0.999756 16.1328 0.999756C8.40184 0.999756 6.39194 5.08472 5.49901 8.64446C4.17398 13.9457 2.80343 16.4853 1.02192 18.858C0.939513 18.9679 0.867747 19.0865 0.789622 19.1995C0.634632 20.3616 0.745618 21.5435 1.11433 22.6563C2.15715 25.7841 5.81686 24.7942 5.97229 24.7513C6.17815 24.693 6.39931 24.7444 6.55864 24.887C6.71785 25.0298 6.79301 25.2441 6.75782 25.4549C6.73655 25.5836 6.26263 28.7237 8.87141 29.7671C9.83163 30.1373 10.8113 30.4548 11.8062 30.718C13.4477 31.1801 14.8839 31.5859 16.1328 32.6244C17.3816 31.5859 18.8177 31.1801 20.4594 30.718C21.4543 30.4547 22.434 30.1373 23.3941 29.7671C26.0191 28.7174 25.5127 25.4868 25.5078 25.4549C25.4726 25.2437 25.548 25.0294 25.7076 24.8869C25.8672 24.7443 26.0887 24.6934 26.2945 24.7518C26.4487 24.7942 30.1091 25.7834 31.1512 22.6571C31.5198 21.5439 31.6309 20.3617 31.4759 19.1995ZM29.0672 21.9669C28.9596 22.2899 28.8103 22.7381 27.7422 22.7381C27.2791 22.7381 26.9051 22.6428 26.8778 22.6355C26.6322 22.5674 26.3787 22.5328 26.1238 22.5328C25.4295 22.5328 24.7621 22.7876 24.2445 23.2502C23.5281 23.8903 23.1902 24.8354 23.3371 25.7836C23.3435 25.835 23.3996 26.3312 23.2732 26.8453C23.1301 27.4283 22.861 27.6142 22.5896 27.7246C21.7119 28.0624 20.8063 28.3555 19.8978 28.596L19.8646 28.605C18.6216 28.955 17.348 29.3135 16.1328 29.9828C14.9175 29.3135 13.6441 28.955 12.401 28.605L12.3678 28.596C11.4593 28.3556 10.5538 28.0625 9.67607 27.7246C9.40009 27.6124 9.12681 27.4265 8.98567 26.8536C8.85951 26.3421 8.91957 25.847 8.9258 25.7998C9.07959 24.8498 8.74336 23.8975 8.02419 23.2528C7.50476 22.7877 6.83696 22.5327 6.14195 22.5327C5.88662 22.5327 5.63241 22.5672 5.38639 22.6358C5.37135 22.6397 4.99237 22.7381 4.52299 22.7381C3.45568 22.7381 3.30611 22.2896 3.19688 21.9621C2.98712 21.3288 2.89389 20.6521 2.9226 19.9816C4.79677 17.4471 6.24803 14.7009 7.62884 9.17685C8.10735 7.269 8.76011 6.01006 9.74469 5.09661C11.124 3.81703 13.2136 3.19499 16.1329 3.19499C19.0522 3.19499 21.1418 3.81703 22.5211 5.09661C23.5057 6.01006 24.1585 7.26906 24.6374 9.17862C26.0174 14.6995 27.4685 17.4461 29.343 19.9814C29.3715 20.6522 29.2781 21.3301 29.0672 21.9669Z" fill="#000"/>
</svg>
