<svg width="27" height="27" viewBox="0 0 27 27" fill="none" xmlns="http://www.w3.org/2000/svg">
<path d="M25.8523 11.0316L22.2457 7.84934V2.78689C22.2457 2.35936 21.8991 2.01275 21.4715 2.01275H18.375C17.9475 2.01275 17.6009 2.35936 17.6009 2.78689V3.75095L13.5693 0.193631C13.2767 -0.064518 12.8376 -0.0645696 12.545 0.193631L0.261955 11.0316C-0.0586412 11.3144 -0.0891938 11.8036 0.193676 12.1242C0.476547 12.4448 0.96575 12.4754 1.28635 12.1925L2.9428 10.7309V24.8755H2.21918C1.79165 24.8755 1.44505 25.2221 1.44505 25.6497C1.44505 26.0772 1.79165 26.4238 2.21918 26.4238H23.8951C24.3226 26.4238 24.6692 26.0772 24.6692 25.6497C24.6692 25.2221 24.3226 24.8755 23.8951 24.8755H23.1715V10.7309L24.828 12.1926C24.9752 12.3225 25.1579 12.3863 25.3399 12.3862C25.5542 12.3862 25.7677 12.2976 25.9207 12.1242C26.2035 11.8037 26.1729 11.3145 25.8523 11.0316ZM19.1491 3.56103H20.6974V6.4832L19.1491 5.11705V3.56103ZM21.6232 24.8756H4.49107V9.36485L13.0571 1.80652L21.6338 9.37414C21.6275 9.41398 21.6232 24.8756 21.6232 24.8756Z" fill="#000"/>
<path d="M15.6333 11.0442C14.643 11.0442 13.7271 11.4348 13.0576 12.1084C12.3882 11.4348 11.4722 11.0442 10.4819 11.0442C8.47584 11.0442 6.84375 12.6762 6.84375 14.6823C6.84375 16.5626 8.37154 18.4718 9.28223 19.4426C10.3463 20.5768 11.9735 21.9013 13.0576 21.9013C14.0984 21.9013 15.6998 20.7258 16.8251 19.5608C17.7387 18.615 19.2714 16.7235 19.2714 14.6823C19.2715 12.6762 17.6394 11.0442 15.6333 11.0442ZM15.7216 18.4748C14.5254 19.7164 13.3688 20.3481 13.0598 20.353C12.7543 20.3385 11.5983 19.6574 10.3822 18.352C9.13603 17.0144 8.39203 15.6426 8.39203 14.6823C8.39203 13.5299 9.32956 12.5925 10.4819 12.5925C11.2879 12.5925 12.0082 13.043 12.3618 13.7681C12.4915 14.0342 12.7616 14.203 13.0576 14.203C13.3536 14.203 13.6237 14.0342 13.7535 13.7681C14.107 13.043 14.8274 12.5925 15.6333 12.5925C16.7856 12.5925 17.7232 13.5299 17.7232 14.6823C17.7232 15.7722 16.9936 17.1545 15.7216 18.4748Z" fill="#000"/>
</svg>
