<svg width="32" height="32" viewBox="0 0 32 32" fill="none" xmlns="http://www.w3.org/2000/svg">
<g clip-path="url(#clip0)">
<path d="M30.2288 20.2009C30.2188 20.1113 30.1167 19.5692 29.9533 18.7262L32 18.044L31.4042 16.2563L29.5888 16.8615C28.7841 12.7698 27.4458 6.07335 26.9228 3.45957C26.621 1.91794 25.2618 0.799072 23.6908 0.799072C22.4124 0.799072 21.2394 1.54869 20.7022 2.70882L19.9232 4.39171C18.6594 3.97956 17.3436 3.7711 16.0001 3.7711C14.6565 3.7711 13.3407 3.97956 12.0769 4.39171L11.2979 2.70876C10.7608 1.54869 9.58764 0.799072 8.3093 0.799072C6.73834 0.799072 5.37916 1.91794 5.07812 3.45574C4.55461 6.07221 3.21604 12.7695 2.41134 16.8615L0.595926 16.2563L0 18.0439L2.04667 18.7262C1.88325 19.5692 1.78125 20.1113 1.7712 20.2008C1.64301 21.3421 1.77723 22.4986 2.1493 23.5793L0 24.2958L0.595801 26.0834L2.98321 25.2876C3.94035 26.7565 5.38011 27.8655 7.04955 28.4143C8.23864 28.8053 9.49519 28.9019 10.7189 28.7008C12.0103 30.2772 13.9406 31.2012 16 31.2012C18.0592 31.2012 19.9897 30.277 21.2811 28.7008C22.5049 28.9019 23.7612 28.8053 24.9504 28.4143C26.6199 27.8655 28.0597 26.7564 29.0168 25.2876L31.4042 26.0834L32 24.2958L29.8507 23.5794C30.2228 22.4986 30.3571 21.3421 30.2288 20.2009ZM21.62 26.8459C22.6513 26.0937 23.3231 24.877 23.3231 23.5058C23.3231 21.3148 21.6091 19.5175 19.4517 19.3822C19.3552 18.3517 18.7894 17.767 18.3078 17.4517C17.7263 17.071 16.9578 16.878 16.0237 16.878C15.0897 16.878 14.3212 17.071 13.7397 17.4517C13.2586 17.7666 12.6936 18.3503 12.596 19.3785C10.4161 19.49 8.67679 21.2986 8.67679 23.5058C8.67679 24.877 9.34865 26.0937 10.3799 26.8459C9.46529 26.9907 8.52712 26.9166 7.638 26.6243C6.50764 26.2527 5.55308 25.5553 4.85666 24.6632L6.62541 24.0736L6.02961 22.286L3.93815 22.9831C3.6557 22.179 3.54465 21.307 3.64264 20.4212C3.65809 20.3194 3.73151 19.9309 3.84858 19.3268L6.02961 20.0538L6.62541 18.2662L4.21325 17.4621C4.89868 13.9788 6.06107 8.14627 6.92638 3.82154C7.05552 3.16199 7.63706 2.68326 8.30924 2.68326C8.85624 2.68326 9.35814 3.00396 9.58789 3.50034L11.1085 6.78496L11.9408 6.44668C12.9412 6.03999 13.9862 5.78933 15.0579 5.69662V10.4506H16.9421V5.69662C18.0138 5.78933 19.0588 6.03999 20.0592 6.44668L20.8915 6.78496L22.4121 3.5004C22.6419 3.00402 23.1438 2.68326 23.6908 2.68326C24.3629 2.68326 24.9445 3.16199 25.0744 3.82537C25.9391 8.1474 27.1013 13.9791 27.7867 17.4621L25.3746 18.2662L25.9704 20.0538L28.1515 19.3268C28.2686 19.9308 28.342 20.3194 28.3574 20.4211C28.4554 21.3069 28.3444 22.1789 28.0619 22.9831L25.9704 22.2859L25.3746 24.0735L27.1433 24.6631C26.4469 25.5553 25.4924 26.2527 24.362 26.6243C23.4729 26.9166 22.5346 26.9907 21.62 26.8459ZM16 29.3169C14.5508 29.3169 13.1896 28.6842 12.2556 27.6002C12.4369 27.6247 12.6215 27.6384 12.8095 27.6384C14.0929 27.6384 15.2414 27.0503 16 26.1295C16.7586 27.0503 17.9071 27.6384 19.1905 27.6384C19.3785 27.6384 19.5631 27.6247 19.7444 27.6002C18.8104 28.6842 17.4492 29.3169 16 29.3169ZM13.2073 21.2933C13.466 21.6129 13.8037 21.9246 14.2211 22.2267C14.454 22.3952 14.6864 22.5422 14.8938 22.6639C14.9993 22.9241 15.0579 23.2081 15.0579 23.5057C15.0579 24.7455 14.0492 25.7541 12.8095 25.7541C11.5697 25.7541 10.561 24.7455 10.561 23.5057C10.561 22.2659 11.5697 21.2573 12.8095 21.2573C12.9453 21.2573 13.078 21.2701 13.2073 21.2933ZM14.4655 19.6954C14.4655 19.4162 14.4655 18.7622 16.0238 18.7622C17.5821 18.7622 17.5821 19.4162 17.5821 19.6954C17.5821 20.0646 16.8107 20.711 16.0239 21.1429C15.2365 20.7106 14.4655 20.0645 14.4655 19.6954ZM19.1905 21.2573C20.4303 21.2573 21.439 22.266 21.439 23.5058C21.439 24.7455 20.4303 25.7542 19.1905 25.7542C17.9508 25.7542 16.9421 24.7455 16.9421 23.5058C16.9421 23.2218 16.9956 22.9501 17.0921 22.6998C17.3145 22.5716 17.5702 22.4122 17.8264 22.2267C18.2481 21.9215 18.5882 21.6065 18.8479 21.2834C18.9597 21.2663 19.0741 21.2573 19.1905 21.2573Z" fill="#000"/>
<path d="M9.58984 12.3701H11.4741V15.8103H9.58984V12.3701Z" fill="#000"/>
<path d="M20.5264 12.3701H22.4106V15.8103H20.5264V12.3701Z" fill="#000"/>
</g>
<defs>
<clipPath id="clip0">
<rect width="32" height="32" fill="white"/>
</clipPath>
</defs>
</svg>
