<svg width="33" height="31" viewBox="0 0 33 31" fill="none" xmlns="http://www.w3.org/2000/svg">
<path d="M24.881 4.3285C22.8479 1.68285 19.6548 0 16.1117 0C12.5686 0 9.37555 1.68285 7.34246 4.3285C3.156 5.19696 0 8.91372 0 13.3539V17.1458C0 19.2533 1.61966 20.9887 3.67944 21.1749C3.66012 22.4351 3.99154 23.6873 4.64835 24.7824C5.48785 26.1824 6.80517 27.2344 8.35762 27.7448C9.29298 28.0523 10.248 28.1443 11.1694 28.0494C12.1807 29.7231 14.0177 30.8445 16.1117 30.8445C18.2058 30.8445 20.0427 29.7232 21.0539 28.0496C21.2828 28.0731 21.5136 28.0857 21.7458 28.0857C22.4484 28.0857 23.1629 27.9759 23.8658 27.7448C25.4183 27.2345 26.7356 26.1824 27.5751 24.7824C28.2321 23.6868 28.5636 22.4339 28.5442 21.1749C30.6039 20.9886 32.2235 19.2532 32.2235 17.1458V13.3539C32.2234 8.91372 29.0674 5.19702 24.881 4.3285ZM30.3353 17.1458C30.3353 18.282 29.4527 19.2153 28.3372 19.2977C28.0873 17.4108 27.5011 12.9216 27.0849 9.72441C26.9612 8.70371 26.7 7.72952 26.322 6.81883C28.7016 8.03111 30.3353 10.5053 30.3353 13.3539V17.1458ZM25.9558 23.8114C25.3495 24.8224 24.3979 25.5824 23.2762 25.9511C20.915 26.7275 18.3799 25.609 17.3219 23.4332C17.5452 23.3019 17.7944 23.1439 18.0442 22.963C19.2182 22.1132 19.8135 21.1998 19.8135 20.2483C19.8135 18.362 18.4297 17.2359 16.1117 17.2359C13.7938 17.2359 12.41 18.362 12.41 20.2483C12.41 21.1998 13.0053 22.1132 14.1793 22.963C14.4291 23.1439 14.6782 23.3018 14.9015 23.4332C13.8435 25.609 11.3084 26.7273 8.9474 25.9511C7.82568 25.5824 6.87402 24.8225 6.26776 23.8114C5.66728 22.8101 5.44103 21.6284 5.63072 20.4841C5.67956 20.1891 6.78937 11.6691 7.01141 9.96407L7.01255 9.95532C7.56739 5.35619 11.4793 1.88809 16.1117 1.88809C20.7441 1.88809 24.656 5.35619 25.211 9.95532L25.2121 9.96407C25.434 11.669 26.5439 20.1891 26.5928 20.4841C26.7825 21.6284 26.5563 22.81 25.9558 23.8114ZM16.1117 28.9564C14.9102 28.9564 13.8345 28.4076 13.1219 27.5477C14.316 27.0439 15.3639 26.2046 16.1117 25.1048C16.8594 26.2047 17.9066 27.0448 19.1006 27.5486C18.388 28.408 17.3128 28.9564 16.1117 28.9564ZM14.298 20.2483C14.298 19.9118 14.298 19.124 16.1117 19.124C17.9254 19.124 17.9254 19.9118 17.9254 20.2483C17.9254 20.6316 17.1985 21.3822 16.1141 21.9546C15.2598 21.4939 14.298 20.7376 14.298 20.2483ZM1.88809 17.1458V13.3539C1.88809 10.5053 3.52172 8.03111 5.90134 6.81883C5.52329 7.72952 5.26204 8.70377 5.13843 9.72447C4.72211 12.9225 4.13573 17.4133 3.88613 19.2977C2.77064 19.2153 1.88809 18.282 1.88809 17.1458Z" fill="#000"/>
<path d="M11.0312 11.2856H12.9193V14.7329H11.0312V11.2856Z" fill="#000"/>
<path d="M19.3047 11.2856H21.1928V14.7329H19.3047V11.2856Z" fill="#000"/>
<path d="M8.30762 20.646H10.1957V22.5341H8.30762V20.646Z" fill="#000"/>
<path d="M22.0273 20.646H23.9154V22.5341H22.0273V20.646Z" fill="#000"/>
</svg>
