<svg width="20" height="27" viewBox="0 0 20 27" fill="none" xmlns="http://www.w3.org/2000/svg">
<path d="M6.45256 27C5.87901 27 5.42016 26.5182 5.42016 25.9381C5.42016 25.3579 5.85989 24.8959 6.41431 24.8762L7.02612 24.8565L6.6055 24.3944C5.33413 23.0473 4.20612 21.6314 3.25974 20.1664C1.09932 16.8135 0 13.4213 0 10.0685C0 4.51311 4.38774 0 9.77925 0C15.1707 0 19.5584 4.51311 19.5584 10.0685C19.5584 13.4016 18.4591 16.8037 16.2987 20.1664C15.3619 21.6216 14.2339 23.0473 12.9529 24.3944L12.5227 24.8467L13.1346 24.8664C13.689 24.886 14.1383 25.358 14.1383 25.9282C14.1383 26.5182 13.6794 26.9902 13.1059 26.9902H6.45256V27ZM9.77925 2.12381C5.52531 2.12381 2.06483 5.68317 2.06483 10.0685C2.06483 16.9119 7.82912 22.7622 9.59762 24.3845L9.77925 24.5517L9.96087 24.3845C11.7293 22.7524 17.4936 16.9119 17.4936 10.0685C17.4936 5.68317 14.0331 2.12381 9.77925 2.12381Z" fill="#000"/>
<path d="M9.77801 16.6561C6.25063 16.6561 3.38281 13.7064 3.38281 10.0782C3.38281 6.44998 6.25063 3.50024 9.77801 3.50024C13.3054 3.50024 16.1733 6.44998 16.1733 10.0782C16.1733 11.8382 15.5041 13.49 14.2996 14.729C13.0856 15.9679 11.4891 16.6561 9.77801 16.6561ZM9.77801 5.27992C7.21613 5.27992 5.13218 7.4234 5.13218 10.0585C5.13218 12.6936 7.21613 14.8371 9.77801 14.8371C12.3399 14.8371 14.4239 12.6936 14.4239 10.0585C14.4239 7.43323 12.3399 5.27992 9.77801 5.27992Z" fill="#000"/>
<path d="M12.5413 7.90519C12.3884 7.74788 12.1781 7.65942 11.9582 7.65942C11.7384 7.65942 11.5376 7.74788 11.3751 7.90519L8.92789 10.4321L8.25877 9.74389C8.10583 9.58658 7.89552 9.48822 7.67564 9.48822C7.45577 9.48822 7.25502 9.57674 7.09252 9.74389C6.93958 9.90119 6.85352 10.1175 6.85352 10.3437C6.85352 10.5698 6.93958 10.7763 7.09252 10.9336L8.34477 12.261C8.51683 12.4085 8.71758 12.4872 8.91833 12.4872C8.96614 12.4872 9.00439 12.4773 9.07133 12.4576C9.22427 12.4281 9.36764 12.3397 9.49189 12.2217L12.5413 9.08509C12.876 8.77047 12.876 8.23954 12.5413 7.90519Z" fill="#000"/>
</svg>
