<svg width="20" height="27" viewBox="0 0 20 27" fill="none" xmlns="http://www.w3.org/2000/svg">
<path d="M6.6028 27C6.02779 27 5.54863 26.5278 5.54863 25.9401C5.54863 25.3522 6.01821 24.8801 6.6028 24.8801H7.23525C6.10445 23.772 4.64782 22.1531 3.33493 20.1681C1.12123 16.8148 0 13.4229 0 10.0696C0 4.51927 4.48491 0 9.99517 0C15.5055 0 20 4.51927 20 10.0696C20 13.4036 18.8788 16.8051 16.6651 20.1681C15.3618 22.1531 13.8956 23.7623 12.7648 24.8801H13.4068C13.9818 24.8801 14.461 25.3522 14.461 25.9401C14.461 26.5182 13.9914 27 13.4068 27H6.6028ZM10.0048 2.11028C5.65405 2.11028 2.10829 5.67559 2.10829 10.0599C2.10829 17.1231 8.3373 23.0878 10.0048 24.5621C11.6818 23.0878 17.9013 17.1328 17.9013 10.0599C17.9013 5.67559 14.3555 2.11028 10.0048 2.11028Z" fill="#000"/>
<path d="M11.2614 10.5222C11.0122 10.0693 10.7056 9.52002 10.0061 9.52002C9.3065 9.52002 8.9998 10.0693 8.75068 10.5125C8.68357 10.657 8.5973 10.792 8.5015 10.9172C8.19486 11.2834 8.10858 11.7845 8.28107 12.2277V12.2374C8.4248 12.5457 8.72192 12.7384 9.05732 12.7384C9.07649 12.7384 9.09566 12.7384 9.10525 12.7384C9.3065 12.7288 9.49816 12.6903 9.68024 12.6035C9.78563 12.5553 9.89101 12.5264 10.0061 12.5264C10.121 12.536 10.2361 12.565 10.3319 12.6035C10.5044 12.6903 10.696 12.7384 10.8973 12.7384C10.9164 12.7384 10.9356 12.7384 10.9452 12.7384C11.271 12.7384 11.5776 12.5457 11.7214 12.2374V12.2277C11.8843 11.7845 11.8077 11.2737 11.501 10.9172C11.4147 10.8016 11.3381 10.657 11.2614 10.5222Z" fill="#000"/>
<path d="M8.99884 9.52007C9.04678 9.52007 9.09471 9.52007 9.14257 9.51049C9.66011 9.4237 10.0051 8.81665 9.89006 8.18067C9.79426 7.60255 9.363 7.16895 8.88387 7.16895C8.83594 7.16895 8.78801 7.16894 8.74007 7.17852C8.4622 7.22674 8.2226 7.41947 8.10763 7.67963C7.98307 7.93015 7.94472 8.22889 7.99259 8.50834C8.08845 9.07682 8.5293 9.52007 8.99884 9.52007Z" fill="#000"/>
<path d="M10.8866 9.50084C10.9345 9.51049 10.9728 9.51049 11.0304 9.51049C11.5095 9.51049 11.9408 9.07682 12.0366 8.50834C12.0845 8.22889 12.0557 7.93979 11.9216 7.67963C11.797 7.42911 11.567 7.23638 11.2891 7.17852C11.2411 7.16894 11.1933 7.16895 11.1453 7.16895C10.6662 7.16895 10.2349 7.60255 10.1391 8.18067C10.0912 8.46012 10.1295 8.75886 10.2541 9.00938C10.3595 9.2599 10.6087 9.44299 10.8866 9.50084Z" fill="#000"/>
<path d="M8.58659 9.82878C8.48121 9.4144 8.11705 9.13501 7.69538 9.13501C7.62827 9.13501 7.55164 9.14459 7.48454 9.16387H7.47495H7.46537C7.00535 9.34696 6.76582 9.86729 6.94789 10.3395C7.01493 10.5708 7.16832 10.7635 7.36957 10.8984C7.5133 10.9851 7.66662 11.0429 7.81994 11.0429C7.89663 11.0429 7.97326 11.0333 8.04995 11.0044H8.05953C8.52908 10.8213 8.75909 10.2913 8.58659 9.82878Z" fill="#000"/>
<path d="M12.5252 9.16406L12.506 9.15442C12.439 9.13513 12.3623 9.12549 12.2952 9.12549C11.8736 9.12549 11.5094 9.41458 11.4039 9.81926C11.2315 10.2818 11.4615 10.8118 11.9214 10.9949H11.931C12.0077 11.0238 12.0844 11.0334 12.161 11.0334C12.3239 11.0334 12.4868 10.9852 12.6115 10.8889C12.8127 10.754 12.9564 10.5612 13.0331 10.33C13.2247 9.87712 12.9852 9.3375 12.5252 9.16406Z" fill="#000"/>
<path d="M9.84176 16.7472C6.3056 16.7472 3.43066 13.8564 3.43066 10.3007C3.43066 6.74504 6.3056 3.85425 9.84176 3.85425C13.3779 3.85425 16.2529 6.74504 16.2529 10.3007C16.2529 12.0255 15.5821 13.6444 14.3746 14.8585C13.1576 16.0726 11.5476 16.7472 9.84176 16.7472ZM9.84176 5.59836C7.2735 5.59836 5.18438 7.69898 5.18438 10.2815C5.18438 12.8639 7.2735 14.9645 9.84176 14.9645C12.4101 14.9645 14.4992 12.8639 14.4992 10.2815C14.4992 7.69898 12.4101 5.59836 9.84176 5.59836Z" fill="#000"/>
</svg>
