<svg width="32" height="32" viewBox="0 0 32 32" fill="none" xmlns="http://www.w3.org/2000/svg">
<g clip-path="url(#clip0)">
<path d="M23.9919 21.5864L23.1362 17.8767C23.1349 17.8712 23.1336 17.8659 23.1323 17.8605C22.9445 17.108 22.6444 16.4086 22.2543 15.7759C23.6009 14.6963 24.9679 12.9312 26.1072 10.7748C28.3862 6.46111 27.5255 1.01524 27.4879 0.78549C27.4442 0.519615 27.2882 0.285365 27.0597 0.142553C26.8313 -0.000259709 26.5525 -0.0378222 26.2941 0.0393653C26.1003 0.0973653 21.519 1.50974 19.2041 5.89149C18.0334 8.10724 17.2723 10.4386 17.0678 12.3677C16.7181 12.3167 16.3617 12.2889 15.9997 12.2889C15.6377 12.2889 15.2813 12.3167 14.9316 12.3677C14.7272 10.4386 13.9661 8.10724 12.7954 5.89149C10.4804 1.50974 5.89901 0.0973653 5.70519 0.0393653C5.44688 -0.0379472 5.16807 -0.000259709 4.93963 0.142553C4.71119 0.285365 4.55519 0.519615 4.51151 0.78549C4.47376 1.01524 3.61319 6.46118 5.89213 10.7748C7.03144 12.9312 8.39851 14.6964 9.74501 15.7759C9.35488 16.4085 9.05476 17.108 8.867 17.8605C8.86569 17.8659 8.86438 17.8712 8.86307 17.8767L8.00726 21.5864C6.51182 22.5487 5.59957 24.202 5.59957 26C5.59957 28.8946 7.95451 31.2494 10.849 31.2494C11.5054 31.2494 12.1563 31.1255 12.7641 30.8875C13.6118 31.6012 14.689 32 15.8108 32C16.9991 32 18.1184 31.5632 18.9814 30.7807C19.6593 31.089 20.3964 31.2494 21.1501 31.2494C24.0446 31.2494 26.3996 28.8945 26.3996 26C26.3996 24.202 25.4874 22.5487 23.9919 21.5864ZM20.8617 6.7673C22.1743 4.28286 24.4274 2.90768 25.7583 2.27468C25.8707 3.99055 25.8483 7.25068 24.4494 9.89893C23.4331 11.8224 22.2106 13.4149 21.0751 14.3201C20.988 14.237 20.8992 14.1557 20.8082 14.0771L21.9788 12.2029C22.2531 11.7639 22.1194 11.1855 21.6804 10.9112C21.2413 10.6368 20.6629 10.7705 20.3886 11.2096L19.2446 13.0411C19.1327 12.9861 19.0189 12.9347 18.904 12.8854C19.0206 11.162 19.7418 8.88724 20.8617 6.7673ZM7.54988 9.89899C6.15482 7.2583 6.13188 3.98943 6.24276 2.27162C7.57138 2.90012 9.81769 4.26936 11.1374 6.76736C12.2574 8.8873 12.9786 11.162 13.0953 12.8855C12.9804 12.9349 12.8664 12.9862 12.7546 13.0412L11.6106 11.2097C11.3364 10.7706 10.7581 10.6369 10.3189 10.9113C9.87975 11.1856 9.74607 11.764 10.0204 12.2031L11.1911 14.0772C11.1001 14.1559 11.0113 14.2371 10.9242 14.3202C9.78863 13.415 8.56619 11.8226 7.54988 9.89899ZM21.1502 29.3744C20.4933 29.3744 19.8561 29.1849 19.3074 28.8262C18.9006 28.5603 18.358 28.6494 18.0574 29.0314C17.5111 29.7264 16.6921 30.125 15.8108 30.125C14.9871 30.125 14.2029 29.7684 13.6593 29.1464C13.4761 28.9369 13.2166 28.8258 12.953 28.8258C12.7968 28.8258 12.6391 28.8649 12.4951 28.9455C11.9944 29.2261 11.4252 29.3744 10.8491 29.3744C8.98838 29.3744 7.47463 27.8606 7.47463 26C7.47463 24.7487 8.16257 23.6058 9.26988 23.0179C9.50982 22.8905 9.68263 22.6652 9.74376 22.4006L10.6883 18.3065C11.3009 15.8671 13.4838 14.1639 15.9996 14.1639C18.5154 14.1639 20.6984 15.8671 21.311 18.3065L22.2554 22.4006C22.3166 22.6652 22.4894 22.8905 22.7293 23.0179C23.8367 23.6058 24.5246 24.7485 24.5246 26C24.5246 27.8607 23.0108 29.3744 21.1502 29.3744Z" fill="#000"/>
<path d="M16.6353 24.4856H15.3643C14.8465 24.4856 14.4268 24.9054 14.4268 25.4231C14.4268 25.9408 14.8465 26.3606 15.3643 26.3606H16.6353C17.153 26.3606 17.5728 25.9408 17.5728 25.4231C17.5728 24.9054 17.153 24.4856 16.6353 24.4856Z" fill="#000"/>
<path d="M11.9375 19.0322H13.8125V22.4555H11.9375V19.0322Z" fill="#000"/>
<path d="M18.1885 19.0322H20.0635V22.4555H18.1885V19.0322Z" fill="#000"/>
</g>
<defs>
<clipPath id="clip0">
<rect width="32" height="32" fill="white"/>
</clipPath>
</defs>
</svg>
