<svg width="32" height="28" viewBox="0 0 32 28" fill="none" xmlns="http://www.w3.org/2000/svg">
<path d="M12.3965 11.302H14.2715V13.177H12.3965V11.302Z" fill="#000"/>
<path d="M17.7285 11.302H19.6035V13.177H17.7285V11.302Z" fill="#000"/>
<path d="M5.04785 5.90625H6.92285V9.69325H5.04785V5.90625Z" fill="#000"/>
<path d="M25.0771 5.90625H26.9521V9.69325H25.0771V5.90625Z" fill="#000"/>
<path d="M26.3958 0.00150001L26.3906 0C24.9114 0 23.9941 0.333562 23.0471 0.96875H8.95288C8.00587 0.333562 7.08856 0 5.60938 0L5.60419 0.00150001C2.50025 0.0819375 0 2.63194 0 5.75494C0 5.97806 0 6.57081 1.1475 12.3733C1.56306 14.4748 2.53962 16.4271 3.94331 18.0439C5.27075 19.5729 8.93625 21.8514 11.9841 22.1268V28.0006L16 26.2612L20.0159 28.0006V22.1268C23.0637 21.8514 26.7292 19.5729 28.0566 18.0439C29.4603 16.4271 30.4369 14.4748 30.8524 12.3733C32 6.57081 32 5.97806 32 5.75494C32 2.63194 29.4998 0.0819375 26.3958 0.00150001ZM11.9841 20.2436C10.0791 20.0398 8.27319 19.3077 6.76844 18.1391H9.68913C10.4705 18.1391 11.2383 18.0384 11.9841 17.8401V20.2436ZM18.1409 25.1452L16 24.2179L13.8591 25.1452V17.1764C14.5536 16.9567 15.2768 16.8468 16 16.8468C16.7232 16.8468 17.4464 16.9567 18.1409 17.1764V25.1452ZM20.0159 20.2436V17.8401C20.7616 18.0385 21.5294 18.1391 22.3109 18.1391H25.2316C23.7268 19.3077 21.9209 20.0398 20.0159 20.2436ZM29.0131 12.0096C28.707 13.5575 28.0471 15.015 27.0923 16.2641H22.3109C21.3476 16.2641 20.4101 16.0717 19.5247 15.6923C18.4047 15.2123 17.2024 14.9722 16 14.9722C14.7976 14.9722 13.5953 15.2122 12.4753 15.6923C11.5899 16.0717 10.6525 16.2641 9.68919 16.2641H4.90769C3.95294 15.0151 3.293 13.5575 2.98688 12.0096C1.95856 6.80969 1.87587 5.90744 1.875 5.75494C1.875 3.64062 3.57506 1.917 5.67981 1.87637C7.34525 1.90981 8.74556 3.03981 9.18725 4.57288H11.1129C10.9976 3.95513 10.7807 3.37269 10.4801 2.84369H21.5199C21.2192 3.37269 21.0024 3.95506 20.8871 4.57288H22.8127C23.2544 3.03981 24.6547 1.90981 26.3201 1.87637C28.4249 1.917 30.125 3.64062 30.125 5.75494C30.1241 5.90744 30.0414 6.80969 29.0131 12.0096Z" fill="#000"/>
</svg>
