<svg width="32" height="30" viewBox="0 0 32 30" fill="none" xmlns="http://www.w3.org/2000/svg">
<path d="M30.0235 14.2204C29.6471 13.8437 29.2706 13.5612 28.8941 13.2786C28.7059 12.5252 28.5176 11.7718 28.2353 11.1126L29.9294 9.41747C32 7.34563 32 3.86116 29.9294 1.78932L29.8353 1.60097C28.8 0.565049 27.4824 0 26.0706 0C24.6588 0 23.2471 0.565049 22.3059 1.60097L20.4235 3.39029C19.4824 3.01359 18.4471 2.82524 17.4118 2.73107C16.9412 2.63689 16.4706 2.63689 16 2.63689C15.5294 2.63689 15.0588 2.63689 14.5882 2.73107C13.5529 2.82524 12.6118 3.10777 11.5765 3.39029L9.78823 1.60097C8.75294 0.565049 7.43529 0 6.02353 0C4.61176 0 3.2 0.565049 2.25882 1.60097L2.07059 1.69515C0 3.76699 0 7.25146 2.07059 9.3233L3.76471 11.0184C3.48235 11.7718 3.29412 12.4311 3.10588 13.1845C2.72941 13.467 2.25882 13.7495 1.97647 14.1262C0.658824 15.4447 0 17.234 0 19.1175C0 23.0728 3.2 26.2748 7.05882 26.2748C7.34118 26.2748 7.52941 26.2748 7.81176 26.2748C10.1647 28.1583 12.9882 29.1 16 29.1C19.0118 29.1 21.8353 28.0641 24.1882 26.2748C24.4706 26.2748 24.6588 26.2748 24.9412 26.2748C28.8941 26.2748 32 23.0728 32 19.1175C32 17.3282 31.3412 15.5388 30.0235 14.2204ZM8.09412 24.4854C8 24.4854 8 24.4854 7.90588 24.4854C7.62353 24.5796 7.34118 24.5796 7.05882 24.5796C4.14118 24.5796 1.69412 22.1311 1.69412 19.2117C1.69412 18.1757 1.97647 17.234 2.44706 16.3864C3.48235 17.8932 5.17647 18.8349 7.05882 18.8349C8 18.8349 8.94118 18.5524 9.78823 18.0816C10.5412 17.7049 11.2 17.0456 11.6706 16.3864C12.1412 15.633 12.4235 14.8796 12.5176 14.032C12.5176 13.8437 12.6118 13.5612 12.6118 13.3728L12.7059 12.7136L12.8 12.0544L12.8941 11.3951L12.9882 10.7359L13.1765 10.0767L13.3647 9.41747L13.6471 8.47573L13.9294 7.53398L14.1176 6.96893L14.3059 6.40388L14.4941 5.83883L14.8706 5.36796L15.1529 4.80291V12.5252C15.1529 12.9961 15.5294 13.3728 16 13.3728C16.4706 13.3728 16.8471 12.9961 16.8471 12.5252V4.70874L16.9412 4.99126L17.2235 5.74466L17.6 6.68641L17.7882 7.25146L17.9765 7.8165C17.9765 7.8165 18.1647 8.28738 18.1647 8.47573C18.7294 10.265 19.1059 12.0544 19.2941 13.9379C19.3882 14.7854 19.6706 15.633 20.1412 16.2922C20.6118 17.0456 21.2706 17.6107 22.0235 17.9874C22.1176 17.9874 22.2118 18.0816 22.3059 18.1757L22.4941 18.2699C22.5882 18.2699 22.6824 18.3641 22.7765 18.3641L22.9647 18.4583C23.0588 18.4583 23.1529 18.4583 23.2471 18.5524L23.4353 18.6466C23.5294 18.6466 23.6235 18.6466 23.7176 18.7408H23.9059H24.1882H24.3765H24.6588H24.8471C24.9412 18.7408 25.0353 18.7408 25.1294 18.7408H25.3176L25.6 18.6466L25.7882 18.5524L26.0706 18.4583L26.2588 18.3641L26.5412 18.2699L26.7294 18.1757C26.8235 18.1757 26.8235 18.0816 27.0118 18.0816L27.2 17.9874L27.4824 17.799L27.6706 17.7049C27.7647 17.7049 27.7647 17.6107 27.8588 17.5165L28.0471 17.3282C28.1412 17.234 28.1412 17.234 28.2353 17.1398L28.4235 16.9515L28.6118 16.7631C28.7059 16.6689 28.7059 16.6689 28.8 16.5748C28.8941 16.4806 28.8941 16.4806 28.9882 16.2922L29.0824 16.1981C29.6471 17.0456 29.8353 17.9874 29.8353 19.0233C29.8353 22.0369 27.4824 24.3913 24.4706 24.3913C24.1882 24.3913 23.9059 24.3913 23.6235 24.2971C23.5294 24.2971 23.5294 24.2971 23.4353 24.2971C23.2471 24.2971 23.0588 24.3913 22.8706 24.4854C20.8 26.2748 18.2588 27.2165 15.5294 27.2165C12.8941 27.2165 10.2588 26.2748 8.18824 24.4854C8.56471 24.5796 8.37647 24.4854 8.09412 24.4854ZM3.38824 3.01359L3.48235 2.82524C4.14118 2.16602 5.08235 1.78932 6.02353 1.78932C6.96471 1.78932 7.90588 2.16602 8.56471 2.82524L9.88235 4.14369L9.50588 4.33204L9.22353 4.52039L8.37647 3.76699C7.81176 3.20194 7.05882 2.82524 6.30588 2.82524C5.55294 2.82524 4.8 3.20194 4.23529 3.76699C3.67059 4.33204 3.38824 4.99126 3.38824 5.83883C3.38824 6.68641 3.67059 7.34563 4.23529 7.91068L4.98823 8.66408C4.89412 8.9466 4.70588 9.13495 4.61176 9.41747L3.38824 8.09903C1.97647 6.68641 1.97647 4.42621 3.38824 3.01359ZM10.8235 5.36796L11.0118 5.65049L11.3882 5.46214L11.7647 5.27379C12.2353 5.08544 12.8 4.89709 13.2706 4.80291L12.8941 5.65049L12.6118 6.30971L12.4235 6.96893L12.2353 7.72233C12.2353 7.72233 12.0471 8.28738 12.0471 8.47573L11.8588 9.13495L11.6706 9.79417L11.4824 10.4534L11.2941 11.1126L11.2 11.7718L11.0118 12.2427L10.9176 12.9019C10.9176 12.9019 10.8235 13.5612 10.8235 13.7495C10.7294 14.2204 10.6353 14.7854 10.3529 15.1621C10.3529 15.2563 10.2588 15.2563 10.2588 15.3505C10.2588 15.4447 10.1647 15.4447 10.1647 15.5388C9.88235 15.9155 9.50588 16.2922 9.03529 16.5748C8.47059 16.8573 7.81176 17.0456 7.24706 17.0456H7.15294C7.05882 17.0456 6.96471 17.0456 6.96471 17.0456H6.87059C5.74118 16.9515 4.8 16.2922 4.23529 15.3505L4.04706 14.9738C4.23529 14.7854 4.42353 14.6913 4.70588 14.5029C4.89412 14.4087 5.08235 14.1262 5.08235 13.8437C5.55294 11.2068 6.96471 8.75825 9.03529 6.96893L9.31765 6.78058L9.6 6.59223L9.88235 6.40388V6.30971L10.0706 6.12136L10.3529 5.93301L10.6353 5.74466L11.0118 5.65049L10.8235 5.36796ZM7.71765 5.65049L7.34118 5.93301L7.15294 6.12136L6.87059 6.40388L6.58824 6.68641C6.4 6.87476 6.21176 7.06311 6.02353 7.25146L5.45882 6.68641C4.98823 6.21553 4.98823 5.46214 5.45882 4.99126C5.64706 4.80291 5.92941 4.61456 6.30588 4.61456C6.68235 4.61456 6.87059 4.70874 7.15294 4.99126L7.71765 5.65049ZM26.0706 1.78932C27.0118 1.78932 27.9529 2.16602 28.6118 2.82524L28.7059 2.91942C30.1176 4.33204 30.1176 6.68641 28.7059 8.09903L27.4824 9.3233C27.2941 9.13495 27.2 8.9466 27.0118 8.75825L27.7647 8.00485C28.8941 6.87476 28.8941 4.99126 27.7647 3.86116C27.2 3.29612 26.4471 3.01359 25.6941 3.01359C24.9412 3.01359 24.1882 3.29612 23.6235 3.86116L22.7765 4.70874C22.7765 4.70874 22.5882 4.61456 22.4 4.52039L22.1176 4.33204L23.4353 3.01359C24.1882 2.16602 25.0353 1.78932 26.0706 1.78932ZM26.5412 6.68641L25.9765 7.25146C25.7882 7.06311 25.6 6.87476 25.4118 6.59223L25.1294 6.30971L24.9412 6.12136L24.6588 5.83883L24.3765 5.55631L25.0353 4.89709C25.2235 4.70874 25.5059 4.52039 25.8824 4.52039C26.2588 4.52039 26.4471 4.61456 26.7294 4.89709C27.0118 5.46214 27.0118 6.21553 26.5412 6.68641ZM21.0824 5.65049L21.3647 5.83883L21.6471 6.02718L21.9294 6.21553L22.2118 6.30971L22.4941 6.49806L22.7765 6.68641L23.0588 6.87476L23.3412 7.06311C25.4118 8.85243 26.8235 11.2068 27.2941 13.9379C27.2941 14.2204 27.4824 14.4087 27.6706 14.5971C27.8588 14.6913 28.1412 14.8796 28.3294 15.068L28.1412 15.4447C27.4824 16.4806 26.2588 17.1398 25.0353 17.1398C24.3765 17.1398 23.7176 16.9515 23.2471 16.6689C22.7765 16.3864 22.3059 16.0097 22.0235 15.5388C21.7412 15.068 21.4588 14.5029 21.4588 13.9379C21.1765 11.9602 20.8 10.0767 20.2353 8.1932C20.1412 8.00485 20.1412 7.8165 20.0471 7.62815L19.8588 7.06311L19.3882 6.30971C19.3882 6.30971 19.2 5.83883 19.1059 5.65049L18.7294 4.80291C19.3882 4.89709 19.8588 5.08544 20.4235 5.36796L20.7059 5.55631C20.8941 5.55631 20.9882 5.55631 21.0824 5.65049Z" fill="#000"/>
<path d="M18.4472 19.9652H16.8472V19.5885H17.6002C18.0708 19.5885 18.4472 19.2118 18.4472 18.7409C18.4472 18.27 18.0708 17.8933 17.6002 17.8933H14.4943C14.0237 17.8933 13.6472 18.27 13.6472 18.7409C13.6472 19.2118 14.0237 19.5885 14.4943 19.5885H15.1531V19.9652H13.5531C13.0825 19.9652 12.7061 20.3419 12.7061 20.8127V23.1671C12.7061 24.9564 14.2119 26.4632 16.0002 26.4632H16.0943C17.8825 26.4632 19.3884 24.9564 19.3884 23.1671V20.8127C19.2943 20.3419 18.9178 19.9652 18.4472 19.9652ZM15.1531 21.7545V24.4855C14.6825 24.203 14.4943 23.7321 14.4943 23.1671V21.7545H15.1531ZM16.8472 24.4855V21.7545H17.6002V23.1671C17.6002 23.7321 17.3178 24.203 16.8472 24.4855Z" fill="#000"/>
<path d="M15.2474 15.9156C15.2474 16.0098 15.3416 16.0098 15.3416 16.104C15.3416 16.1981 15.4357 16.1981 15.4357 16.1981L15.5298 16.2923C15.6239 16.2923 15.6239 16.3865 15.718 16.3865C15.8121 16.3865 15.8121 16.3865 15.9063 16.4807C16.0004 16.4807 16.0004 16.4807 16.0945 16.4807C16.1886 16.4807 16.1886 16.4807 16.2827 16.4807C16.3769 16.4807 16.3768 16.4807 16.471 16.3865C16.5651 16.3865 16.5651 16.2923 16.6592 16.2923C16.7533 16.2923 16.7533 16.1981 16.7533 16.1981L16.8474 16.104C16.8474 16.104 16.9416 16.0098 16.9416 15.9156C16.9416 15.8214 16.9416 15.8214 17.0357 15.7273C17.0357 15.6331 17.0357 15.6331 17.0357 15.5389C17.0357 15.4447 17.0357 15.4447 17.0357 15.3506C17.0357 15.2564 17.0357 15.2564 16.9416 15.1622C16.9416 15.068 16.8474 15.068 16.8474 14.9739C16.8474 14.8797 16.7533 14.8797 16.7533 14.8797L16.6592 14.7855C16.5651 14.7855 16.5651 14.6913 16.471 14.6913C16.3768 14.6913 16.3769 14.6913 16.2827 14.5972C16.1886 14.5972 16.1886 14.5972 16.0945 14.5972C16.0004 14.5972 16.0004 14.5972 15.9063 14.5972C15.8121 14.5972 15.8121 14.5972 15.718 14.6913C15.6239 14.6913 15.6239 14.7855 15.5298 14.7855C15.4357 14.7855 15.4357 14.8797 15.4357 14.8797L15.3416 14.9739C15.3416 14.9739 15.2474 15.068 15.2474 15.1622C15.2474 15.2564 15.2474 15.2564 15.1533 15.3506C15.1533 15.4447 15.1533 15.4447 15.1533 15.5389C15.1533 15.6331 15.1533 15.6331 15.1533 15.7273C15.1533 15.8214 15.1533 15.8214 15.2474 15.9156Z" fill="#000"/>
<path d="M22.3057 11.395H24.0939V14.597H22.3057V11.395Z" fill="#000"/>
<path d="M8 11.395H9.78824V14.597H8V11.395Z" fill="#000"/>
</svg>
